<svg width="1364" height="104" viewBox="0 0 1364 104" fill="none" xmlns="http://www.w3.org/2000/svg">
<rect width="1364" height="104" rx="15" fill="white"/>
<path d="M36.644 54.568V61H34.328V43.804H39.404C40.492 43.804 41.436 43.932 42.236 44.188C43.044 44.436 43.712 44.792 44.24 45.256C44.768 45.72 45.16 46.28 45.416 46.936C45.68 47.592 45.812 48.324 45.812 49.132C45.812 49.932 45.672 50.664 45.392 51.328C45.112 51.992 44.7 52.564 44.156 53.044C43.62 53.524 42.952 53.9 42.152 54.172C41.352 54.436 40.436 54.568 39.404 54.568H36.644ZM36.644 52.72H39.404C40.068 52.72 40.652 52.632 41.156 52.456C41.668 52.28 42.096 52.036 42.44 51.724C42.784 51.404 43.044 51.024 43.22 50.584C43.396 50.144 43.484 49.66 43.484 49.132C43.484 48.036 43.144 47.18 42.464 46.564C41.792 45.948 40.772 45.64 39.404 45.64H36.644V52.72ZM50.7999 43.324V61H48.6639V43.324H50.7999ZM59.3765 48.652C60.1045 48.652 60.7765 48.776 61.3925 49.024C62.0085 49.264 62.5405 49.616 62.9885 50.08C63.4365 50.536 63.7845 51.104 64.0325 51.784C64.2885 52.456 64.4165 53.224 64.4165 54.088C64.4165 54.424 64.3805 54.648 64.3085 54.76C64.2365 54.872 64.1005 54.928 63.9005 54.928H55.8125C55.8285 55.696 55.9325 56.364 56.1245 56.932C56.3165 57.5 56.5805 57.976 56.9165 58.36C57.2525 58.736 57.6525 59.02 58.1165 59.212C58.5805 59.396 59.1005 59.488 59.6765 59.488C60.2125 59.488 60.6725 59.428 61.0565 59.308C61.4485 59.18 61.7845 59.044 62.0645 58.9C62.3445 58.756 62.5765 58.624 62.7605 58.504C62.9525 58.376 63.1165 58.312 63.2525 58.312C63.4285 58.312 63.5645 58.38 63.6605 58.516L64.2605 59.296C63.9965 59.616 63.6805 59.896 63.3125 60.136C62.9445 60.368 62.5485 60.56 62.1245 60.712C61.7085 60.864 61.2765 60.976 60.8285 61.048C60.3805 61.128 59.9365 61.168 59.4965 61.168C58.6565 61.168 57.8805 61.028 57.1685 60.748C56.4645 60.46 55.8525 60.044 55.3325 59.5C54.8205 58.948 54.4205 58.268 54.1325 57.46C53.8445 56.652 53.7005 55.724 53.7005 54.676C53.7005 53.828 53.8285 53.036 54.0845 52.3C54.3485 51.564 54.7245 50.928 55.2125 50.392C55.7005 49.848 56.2965 49.424 57.0005 49.12C57.7045 48.808 58.4965 48.652 59.3765 48.652ZM59.4245 50.224C58.3925 50.224 57.5805 50.524 56.9885 51.124C56.3965 51.716 56.0285 52.54 55.8845 53.596H62.4965C62.4965 53.1 62.4285 52.648 62.2925 52.24C62.1565 51.824 61.9565 51.468 61.6925 51.172C61.4285 50.868 61.1045 50.636 60.7205 50.476C60.3445 50.308 59.9125 50.224 59.4245 50.224ZM76.0784 61H75.1304C74.9224 61 74.7544 60.968 74.6264 60.904C74.4984 60.84 74.4144 60.704 74.3744 60.496L74.1344 59.368C73.8144 59.656 73.5024 59.916 73.1984 60.148C72.8944 60.372 72.5744 60.564 72.2384 60.724C71.9024 60.876 71.5424 60.992 71.1584 61.072C70.7824 61.152 70.3624 61.192 69.8984 61.192C69.4264 61.192 68.9824 61.128 68.5664 61C68.1584 60.864 67.8024 60.664 67.4984 60.4C67.1944 60.136 66.9504 59.804 66.7664 59.404C66.5904 58.996 66.5024 58.516 66.5024 57.964C66.5024 57.484 66.6344 57.024 66.8984 56.584C67.1624 56.136 67.5864 55.74 68.1704 55.396C68.7624 55.052 69.5344 54.772 70.4864 54.556C71.4384 54.332 72.6024 54.204 73.9784 54.172V53.224C73.9784 52.28 73.7744 51.568 73.3664 51.088C72.9664 50.6 72.3704 50.356 71.5784 50.356C71.0584 50.356 70.6184 50.424 70.2584 50.56C69.9064 50.688 69.5984 50.836 69.3344 51.004C69.0784 51.164 68.8544 51.312 68.6624 51.448C68.4784 51.576 68.2944 51.64 68.1104 51.64C67.9664 51.64 67.8384 51.604 67.7264 51.532C67.6224 51.452 67.5384 51.356 67.4744 51.244L67.0904 50.56C67.7624 49.912 68.4864 49.428 69.2624 49.108C70.0384 48.788 70.8984 48.628 71.8424 48.628C72.5224 48.628 73.1264 48.74 73.6544 48.964C74.1824 49.188 74.6264 49.5 74.9864 49.9C75.3464 50.3 75.6184 50.784 75.8024 51.352C75.9864 51.92 76.0784 52.544 76.0784 53.224V61ZM70.5344 59.692C70.9104 59.692 71.2544 59.656 71.5664 59.584C71.8784 59.504 72.1704 59.396 72.4424 59.26C72.7224 59.116 72.9864 58.944 73.2344 58.744C73.4904 58.544 73.7384 58.316 73.9784 58.06V55.528C72.9944 55.56 72.1584 55.64 71.4704 55.768C70.7824 55.888 70.2224 56.048 69.7904 56.248C69.3584 56.448 69.0424 56.684 68.8424 56.956C68.6504 57.228 68.5544 57.532 68.5544 57.868C68.5544 58.188 68.6064 58.464 68.7104 58.696C68.8144 58.928 68.9544 59.12 69.1304 59.272C69.3064 59.416 69.5144 59.524 69.7544 59.596C69.9944 59.66 70.2544 59.692 70.5344 59.692ZM86.2745 50.848C86.1785 51.024 86.0305 51.112 85.8305 51.112C85.7105 51.112 85.5745 51.068 85.4225 50.98C85.2705 50.892 85.0825 50.796 84.8585 50.692C84.6425 50.58 84.3825 50.48 84.0785 50.392C83.7745 50.296 83.4145 50.248 82.9985 50.248C82.6385 50.248 82.3145 50.296 82.0265 50.392C81.7385 50.48 81.4905 50.604 81.2825 50.764C81.0825 50.924 80.9265 51.112 80.8145 51.328C80.7105 51.536 80.6585 51.764 80.6585 52.012C80.6585 52.324 80.7465 52.584 80.9225 52.792C81.1065 53 81.3465 53.18 81.6425 53.332C81.9385 53.484 82.2745 53.62 82.6505 53.74C83.0265 53.852 83.4105 53.976 83.8025 54.112C84.2025 54.24 84.5905 54.384 84.9665 54.544C85.3425 54.704 85.6785 54.904 85.9745 55.144C86.2705 55.384 86.5065 55.68 86.6825 56.032C86.8665 56.376 86.9585 56.792 86.9585 57.28C86.9585 57.84 86.8585 58.36 86.6585 58.84C86.4585 59.312 86.1625 59.724 85.7705 60.076C85.3785 60.42 84.8985 60.692 84.3305 60.892C83.7625 61.092 83.1065 61.192 82.3625 61.192C81.5145 61.192 80.7465 61.056 80.0585 60.784C79.3705 60.504 78.7865 60.148 78.3065 59.716L78.8105 58.9C78.8745 58.796 78.9505 58.716 79.0385 58.66C79.1265 58.604 79.2425 58.576 79.3865 58.576C79.5305 58.576 79.6825 58.632 79.8425 58.744C80.0025 58.856 80.1945 58.98 80.4185 59.116C80.6505 59.252 80.9265 59.376 81.2465 59.488C81.5745 59.6 81.9825 59.656 82.4705 59.656C82.8865 59.656 83.2505 59.604 83.5625 59.5C83.8745 59.388 84.1345 59.24 84.3425 59.056C84.5505 58.872 84.7025 58.66 84.7985 58.42C84.9025 58.18 84.9545 57.924 84.9545 57.652C84.9545 57.316 84.8625 57.04 84.6785 56.824C84.5025 56.6 84.2665 56.412 83.9705 56.26C83.6745 56.1 83.3345 55.964 82.9505 55.852C82.5745 55.732 82.1865 55.608 81.7865 55.48C81.3945 55.352 81.0065 55.208 80.6225 55.048C80.2465 54.88 79.9105 54.672 79.6145 54.424C79.3185 54.176 79.0785 53.872 78.8945 53.512C78.7185 53.144 78.6305 52.7 78.6305 52.18C78.6305 51.716 78.7265 51.272 78.9185 50.848C79.1105 50.416 79.3905 50.04 79.7585 49.72C80.1265 49.392 80.5785 49.132 81.1145 48.94C81.6505 48.748 82.2625 48.652 82.9505 48.652C83.7505 48.652 84.4665 48.78 85.0985 49.036C85.7385 49.284 86.2905 49.628 86.7545 50.068L86.2745 50.848ZM94.5328 48.652C95.2608 48.652 95.9328 48.776 96.5488 49.024C97.1648 49.264 97.6968 49.616 98.1448 50.08C98.5928 50.536 98.9408 51.104 99.1888 51.784C99.4448 52.456 99.5728 53.224 99.5728 54.088C99.5728 54.424 99.5368 54.648 99.4648 54.76C99.3928 54.872 99.2568 54.928 99.0568 54.928H90.9688C90.9848 55.696 91.0888 56.364 91.2808 56.932C91.4728 57.5 91.7368 57.976 92.0728 58.36C92.4088 58.736 92.8088 59.02 93.2728 59.212C93.7368 59.396 94.2568 59.488 94.8328 59.488C95.3688 59.488 95.8288 59.428 96.2128 59.308C96.6048 59.18 96.9408 59.044 97.2208 58.9C97.5008 58.756 97.7328 58.624 97.9168 58.504C98.1088 58.376 98.2728 58.312 98.4088 58.312C98.5848 58.312 98.7208 58.38 98.8168 58.516L99.4168 59.296C99.1528 59.616 98.8368 59.896 98.4688 60.136C98.1008 60.368 97.7048 60.56 97.2808 60.712C96.8648 60.864 96.4328 60.976 95.9848 61.048C95.5368 61.128 95.0928 61.168 94.6528 61.168C93.8128 61.168 93.0368 61.028 92.3248 60.748C91.6208 60.46 91.0088 60.044 90.4888 59.5C89.9768 58.948 89.5768 58.268 89.2888 57.46C89.0008 56.652 88.8568 55.724 88.8568 54.676C88.8568 53.828 88.9848 53.036 89.2408 52.3C89.5048 51.564 89.8808 50.928 90.3688 50.392C90.8568 49.848 91.4528 49.424 92.1568 49.12C92.8608 48.808 93.6528 48.652 94.5328 48.652ZM94.5807 50.224C93.5488 50.224 92.7368 50.524 92.1448 51.124C91.5528 51.716 91.1848 52.54 91.0408 53.596H97.6528C97.6528 53.1 97.5848 52.648 97.4488 52.24C97.3128 51.824 97.1128 51.468 96.8488 51.172C96.5848 50.868 96.2608 50.636 95.8768 50.476C95.5008 50.308 95.0688 50.224 94.5807 50.224ZM113.907 50.848C113.811 51.024 113.663 51.112 113.463 51.112C113.343 51.112 113.207 51.068 113.055 50.98C112.903 50.892 112.715 50.796 112.491 50.692C112.275 50.58 112.015 50.48 111.711 50.392C111.407 50.296 111.047 50.248 110.631 50.248C110.271 50.248 109.947 50.296 109.659 50.392C109.371 50.48 109.123 50.604 108.915 50.764C108.715 50.924 108.559 51.112 108.447 51.328C108.343 51.536 108.291 51.764 108.291 52.012C108.291 52.324 108.379 52.584 108.555 52.792C108.739 53 108.979 53.18 109.275 53.332C109.571 53.484 109.907 53.62 110.283 53.74C110.659 53.852 111.043 53.976 111.435 54.112C111.835 54.24 112.223 54.384 112.599 54.544C112.975 54.704 113.311 54.904 113.607 55.144C113.903 55.384 114.139 55.68 114.315 56.032C114.499 56.376 114.591 56.792 114.591 57.28C114.591 57.84 114.491 58.36 114.291 58.84C114.091 59.312 113.795 59.724 113.403 60.076C113.011 60.42 112.531 60.692 111.963 60.892C111.395 61.092 110.739 61.192 109.995 61.192C109.147 61.192 108.379 61.056 107.691 60.784C107.003 60.504 106.419 60.148 105.939 59.716L106.443 58.9C106.507 58.796 106.583 58.716 106.671 58.66C106.759 58.604 106.875 58.576 107.019 58.576C107.163 58.576 107.315 58.632 107.475 58.744C107.635 58.856 107.827 58.98 108.051 59.116C108.283 59.252 108.559 59.376 108.879 59.488C109.207 59.6 109.615 59.656 110.103 59.656C110.519 59.656 110.883 59.604 111.195 59.5C111.507 59.388 111.767 59.24 111.975 59.056C112.183 58.872 112.335 58.66 112.431 58.42C112.535 58.18 112.587 57.924 112.587 57.652C112.587 57.316 112.495 57.04 112.311 56.824C112.135 56.6 111.899 56.412 111.603 56.26C111.307 56.1 110.967 55.964 110.583 55.852C110.207 55.732 109.819 55.608 109.419 55.48C109.027 55.352 108.639 55.208 108.255 55.048C107.879 54.88 107.543 54.672 107.247 54.424C106.951 54.176 106.711 53.872 106.527 53.512C106.351 53.144 106.263 52.7 106.263 52.18C106.263 51.716 106.359 51.272 106.551 50.848C106.743 50.416 107.023 50.04 107.391 49.72C107.759 49.392 108.211 49.132 108.747 48.94C109.283 48.748 109.895 48.652 110.583 48.652C111.383 48.652 112.099 48.78 112.731 49.036C113.371 49.284 113.923 49.628 114.387 50.068L113.907 50.848ZM122.166 48.652C122.894 48.652 123.566 48.776 124.182 49.024C124.798 49.264 125.33 49.616 125.778 50.08C126.226 50.536 126.574 51.104 126.822 51.784C127.078 52.456 127.206 53.224 127.206 54.088C127.206 54.424 127.17 54.648 127.098 54.76C127.026 54.872 126.89 54.928 126.69 54.928H118.602C118.618 55.696 118.722 56.364 118.914 56.932C119.106 57.5 119.37 57.976 119.706 58.36C120.042 58.736 120.442 59.02 120.906 59.212C121.37 59.396 121.89 59.488 122.466 59.488C123.002 59.488 123.462 59.428 123.846 59.308C124.238 59.18 124.574 59.044 124.854 58.9C125.134 58.756 125.366 58.624 125.55 58.504C125.742 58.376 125.906 58.312 126.042 58.312C126.218 58.312 126.354 58.38 126.45 58.516L127.05 59.296C126.786 59.616 126.47 59.896 126.102 60.136C125.734 60.368 125.338 60.56 124.914 60.712C124.498 60.864 124.066 60.976 123.618 61.048C123.17 61.128 122.726 61.168 122.286 61.168C121.446 61.168 120.67 61.028 119.958 60.748C119.254 60.46 118.642 60.044 118.122 59.5C117.61 58.948 117.21 58.268 116.922 57.46C116.634 56.652 116.49 55.724 116.49 54.676C116.49 53.828 116.618 53.036 116.874 52.3C117.138 51.564 117.514 50.928 118.002 50.392C118.49 49.848 119.086 49.424 119.79 49.12C120.494 48.808 121.286 48.652 122.166 48.652ZM122.214 50.224C121.182 50.224 120.37 50.524 119.778 51.124C119.186 51.716 118.818 52.54 118.674 53.596H125.286C125.286 53.1 125.218 52.648 125.082 52.24C124.946 51.824 124.746 51.468 124.482 51.172C124.218 50.868 123.894 50.636 123.51 50.476C123.134 50.308 122.702 50.224 122.214 50.224ZM132.316 43.324V61H130.18V43.324H132.316ZM140.892 48.652C141.62 48.652 142.292 48.776 142.908 49.024C143.524 49.264 144.056 49.616 144.504 50.08C144.952 50.536 145.3 51.104 145.548 51.784C145.804 52.456 145.932 53.224 145.932 54.088C145.932 54.424 145.896 54.648 145.824 54.76C145.752 54.872 145.616 54.928 145.416 54.928H137.328C137.344 55.696 137.448 56.364 137.64 56.932C137.832 57.5 138.096 57.976 138.432 58.36C138.768 58.736 139.168 59.02 139.632 59.212C140.096 59.396 140.616 59.488 141.192 59.488C141.728 59.488 142.188 59.428 142.572 59.308C142.964 59.18 143.3 59.044 143.58 58.9C143.86 58.756 144.092 58.624 144.276 58.504C144.468 58.376 144.632 58.312 144.768 58.312C144.944 58.312 145.08 58.38 145.176 58.516L145.776 59.296C145.512 59.616 145.196 59.896 144.828 60.136C144.46 60.368 144.064 60.56 143.64 60.712C143.224 60.864 142.792 60.976 142.344 61.048C141.896 61.128 141.452 61.168 141.012 61.168C140.172 61.168 139.396 61.028 138.684 60.748C137.98 60.46 137.368 60.044 136.848 59.5C136.336 58.948 135.936 58.268 135.648 57.46C135.36 56.652 135.216 55.724 135.216 54.676C135.216 53.828 135.344 53.036 135.6 52.3C135.864 51.564 136.24 50.928 136.728 50.392C137.216 49.848 137.812 49.424 138.516 49.12C139.22 48.808 140.012 48.652 140.892 48.652ZM140.94 50.224C139.908 50.224 139.096 50.524 138.504 51.124C137.912 51.716 137.544 52.54 137.4 53.596H144.012C144.012 53.1 143.944 52.648 143.808 52.24C143.672 51.824 143.472 51.468 143.208 51.172C142.944 50.868 142.62 50.636 142.236 50.476C141.86 50.308 141.428 50.224 140.94 50.224ZM156.958 51.004C156.894 51.092 156.83 51.16 156.766 51.208C156.702 51.256 156.61 51.28 156.49 51.28C156.37 51.28 156.238 51.232 156.094 51.136C155.958 51.032 155.782 50.92 155.566 50.8C155.35 50.68 155.086 50.572 154.774 50.476C154.47 50.372 154.094 50.32 153.646 50.32C153.054 50.32 152.53 50.428 152.074 50.644C151.618 50.852 151.234 51.156 150.922 51.556C150.618 51.956 150.386 52.44 150.226 53.008C150.074 53.576 149.998 54.212 149.998 54.916C149.998 55.652 150.082 56.308 150.25 56.884C150.418 57.452 150.654 57.932 150.958 58.324C151.262 58.708 151.63 59.004 152.062 59.212C152.502 59.412 152.994 59.512 153.538 59.512C154.058 59.512 154.486 59.452 154.822 59.332C155.158 59.204 155.438 59.064 155.662 58.912C155.886 58.76 156.07 58.624 156.214 58.504C156.358 58.376 156.502 58.312 156.646 58.312C156.83 58.312 156.966 58.38 157.054 58.516L157.654 59.296C157.126 59.944 156.466 60.42 155.674 60.724C154.882 61.02 154.046 61.168 153.166 61.168C152.406 61.168 151.698 61.028 151.042 60.748C150.394 60.468 149.83 60.064 149.35 59.536C148.87 59 148.49 58.344 148.21 57.568C147.938 56.792 147.802 55.908 147.802 54.916C147.802 54.012 147.926 53.176 148.174 52.408C148.43 51.64 148.798 50.98 149.278 50.428C149.766 49.868 150.366 49.432 151.078 49.12C151.79 48.808 152.606 48.652 153.526 48.652C154.374 48.652 155.126 48.792 155.782 49.072C156.438 49.344 157.018 49.732 157.522 50.236L156.958 51.004ZM163.553 61.192C162.593 61.192 161.853 60.924 161.333 60.388C160.821 59.852 160.565 59.08 160.565 58.072V50.632H159.101C158.973 50.632 158.865 50.596 158.777 50.524C158.689 50.444 158.645 50.324 158.645 50.164V49.312L160.637 49.06L161.129 45.304C161.145 45.184 161.197 45.088 161.285 45.016C161.373 44.936 161.485 44.896 161.621 44.896H162.701V49.084H166.181V50.632H162.701V57.928C162.701 58.44 162.825 58.82 163.073 59.068C163.321 59.316 163.641 59.44 164.033 59.44C164.257 59.44 164.449 59.412 164.609 59.356C164.777 59.292 164.921 59.224 165.041 59.152C165.161 59.08 165.261 59.016 165.341 58.96C165.429 58.896 165.505 58.864 165.569 58.864C165.681 58.864 165.781 58.932 165.869 59.068L166.493 60.088C166.125 60.432 165.681 60.704 165.161 60.904C164.641 61.096 164.105 61.192 163.553 61.192ZM177.147 61.192C176.187 61.192 175.447 60.924 174.927 60.388C174.415 59.852 174.159 59.08 174.159 58.072V50.632H172.695C172.567 50.632 172.459 50.596 172.371 50.524C172.283 50.444 172.239 50.324 172.239 50.164V49.312L174.231 49.06L174.723 45.304C174.739 45.184 174.791 45.088 174.879 45.016C174.967 44.936 175.079 44.896 175.215 44.896H176.295V49.084H179.775V50.632H176.295V57.928C176.295 58.44 176.419 58.82 176.667 59.068C176.915 59.316 177.235 59.44 177.627 59.44C177.851 59.44 178.043 59.412 178.203 59.356C178.371 59.292 178.515 59.224 178.635 59.152C178.755 59.08 178.855 59.016 178.935 58.96C179.023 58.896 179.099 58.864 179.163 58.864C179.275 58.864 179.375 58.932 179.463 59.068L180.087 60.088C179.719 60.432 179.275 60.704 178.755 60.904C178.235 61.096 177.699 61.192 177.147 61.192ZM182.416 61V43.324H184.552V50.476C185.072 49.924 185.648 49.484 186.28 49.156C186.912 48.82 187.64 48.652 188.464 48.652C189.128 48.652 189.712 48.764 190.216 48.988C190.728 49.204 191.152 49.516 191.488 49.924C191.832 50.324 192.092 50.808 192.268 51.376C192.444 51.944 192.532 52.572 192.532 53.26V61H190.396V53.26C190.396 52.34 190.184 51.628 189.76 51.124C189.344 50.612 188.704 50.356 187.84 50.356C187.208 50.356 186.616 50.508 186.064 50.812C185.52 51.116 185.016 51.528 184.552 52.048V61H182.416ZM200.564 48.652C201.292 48.652 201.964 48.776 202.58 49.024C203.196 49.264 203.728 49.616 204.176 50.08C204.624 50.536 204.972 51.104 205.22 51.784C205.476 52.456 205.604 53.224 205.604 54.088C205.604 54.424 205.568 54.648 205.496 54.76C205.424 54.872 205.288 54.928 205.088 54.928H197C197.016 55.696 197.12 56.364 197.312 56.932C197.504 57.5 197.768 57.976 198.104 58.36C198.44 58.736 198.84 59.02 199.304 59.212C199.768 59.396 200.288 59.488 200.864 59.488C201.4 59.488 201.86 59.428 202.244 59.308C202.636 59.18 202.972 59.044 203.252 58.9C203.532 58.756 203.764 58.624 203.948 58.504C204.14 58.376 204.304 58.312 204.44 58.312C204.616 58.312 204.752 58.38 204.848 58.516L205.448 59.296C205.184 59.616 204.868 59.896 204.5 60.136C204.132 60.368 203.736 60.56 203.312 60.712C202.896 60.864 202.464 60.976 202.016 61.048C201.568 61.128 201.124 61.168 200.684 61.168C199.844 61.168 199.068 61.028 198.356 60.748C197.652 60.46 197.04 60.044 196.52 59.5C196.008 58.948 195.608 58.268 195.32 57.46C195.032 56.652 194.888 55.724 194.888 54.676C194.888 53.828 195.016 53.036 195.272 52.3C195.536 51.564 195.912 50.928 196.4 50.392C196.888 49.848 197.484 49.424 198.188 49.12C198.892 48.808 199.684 48.652 200.564 48.652ZM200.612 50.224C199.58 50.224 198.768 50.524 198.176 51.124C197.584 51.716 197.216 52.54 197.072 53.596H203.684C203.684 53.1 203.616 52.648 203.48 52.24C203.344 51.824 203.144 51.468 202.88 51.172C202.616 50.868 202.292 50.636 201.908 50.476C201.532 50.308 201.1 50.224 200.612 50.224ZM217.899 48.652C218.787 48.652 219.587 48.8 220.299 49.096C221.019 49.392 221.627 49.812 222.123 50.356C222.627 50.9 223.011 51.56 223.275 52.336C223.547 53.104 223.683 53.964 223.683 54.916C223.683 55.876 223.547 56.74 223.275 57.508C223.011 58.276 222.627 58.932 222.123 59.476C221.627 60.02 221.019 60.44 220.299 60.736C219.587 61.024 218.787 61.168 217.899 61.168C217.011 61.168 216.207 61.024 215.487 60.736C214.775 60.44 214.167 60.02 213.663 59.476C213.159 58.932 212.771 58.276 212.499 57.508C212.227 56.74 212.091 55.876 212.091 54.916C212.091 53.964 212.227 53.104 212.499 52.336C212.771 51.56 213.159 50.9 213.663 50.356C214.167 49.812 214.775 49.392 215.487 49.096C216.207 48.8 217.011 48.652 217.899 48.652ZM217.899 59.5C219.099 59.5 219.995 59.1 220.587 58.3C221.179 57.492 221.475 56.368 221.475 54.928C221.475 53.48 221.179 52.352 220.587 51.544C219.995 50.736 219.099 50.332 217.899 50.332C217.291 50.332 216.763 50.436 216.315 50.644C215.867 50.852 215.491 51.152 215.187 51.544C214.891 51.936 214.667 52.42 214.515 52.996C214.371 53.564 214.299 54.208 214.299 54.928C214.299 55.648 214.371 56.292 214.515 56.86C214.667 57.428 214.891 57.908 215.187 58.3C215.491 58.684 215.867 58.98 216.315 59.188C216.763 59.396 217.291 59.5 217.899 59.5ZM228.163 48.844V56.596C228.163 57.516 228.375 58.228 228.799 58.732C229.223 59.236 229.863 59.488 230.719 59.488C231.343 59.488 231.931 59.34 232.483 59.044C233.035 58.748 233.543 58.336 234.007 57.808V48.844H236.143V61H234.871C234.567 61 234.375 60.852 234.295 60.556L234.127 59.248C233.599 59.832 233.007 60.304 232.351 60.664C231.695 61.016 230.943 61.192 230.095 61.192C229.431 61.192 228.843 61.084 228.331 60.868C227.827 60.644 227.403 60.332 227.059 59.932C226.715 59.532 226.455 59.048 226.279 58.48C226.111 57.912 226.027 57.284 226.027 56.596V48.844H228.163ZM243.334 61.192C242.374 61.192 241.634 60.924 241.114 60.388C240.602 59.852 240.346 59.08 240.346 58.072V50.632H238.882C238.754 50.632 238.646 50.596 238.558 50.524C238.47 50.444 238.426 50.324 238.426 50.164V49.312L240.418 49.06L240.91 45.304C240.926 45.184 240.978 45.088 241.066 45.016C241.154 44.936 241.266 44.896 241.402 44.896H242.482V49.084H245.962V50.632H242.482V57.928C242.482 58.44 242.606 58.82 242.854 59.068C243.102 59.316 243.422 59.44 243.814 59.44C244.038 59.44 244.23 59.412 244.39 59.356C244.558 59.292 244.702 59.224 244.822 59.152C244.942 59.08 245.042 59.016 245.122 58.96C245.21 58.896 245.286 58.864 245.35 58.864C245.462 58.864 245.562 58.932 245.65 59.068L246.274 60.088C245.906 60.432 245.462 60.704 244.942 60.904C244.422 61.096 243.886 61.192 243.334 61.192ZM253.416 48.652C254.144 48.652 254.816 48.776 255.432 49.024C256.048 49.264 256.58 49.616 257.028 50.08C257.476 50.536 257.824 51.104 258.072 51.784C258.328 52.456 258.456 53.224 258.456 54.088C258.456 54.424 258.42 54.648 258.348 54.76C258.276 54.872 258.14 54.928 257.94 54.928H249.852C249.868 55.696 249.972 56.364 250.164 56.932C250.356 57.5 250.62 57.976 250.956 58.36C251.292 58.736 251.692 59.02 252.156 59.212C252.62 59.396 253.14 59.488 253.716 59.488C254.252 59.488 254.712 59.428 255.096 59.308C255.488 59.18 255.824 59.044 256.104 58.9C256.384 58.756 256.616 58.624 256.8 58.504C256.992 58.376 257.156 58.312 257.292 58.312C257.468 58.312 257.604 58.38 257.7 58.516L258.3 59.296C258.036 59.616 257.72 59.896 257.352 60.136C256.984 60.368 256.588 60.56 256.164 60.712C255.748 60.864 255.316 60.976 254.868 61.048C254.42 61.128 253.976 61.168 253.536 61.168C252.696 61.168 251.92 61.028 251.208 60.748C250.504 60.46 249.892 60.044 249.372 59.5C248.86 58.948 248.46 58.268 248.172 57.46C247.884 56.652 247.74 55.724 247.74 54.676C247.74 53.828 247.868 53.036 248.124 52.3C248.388 51.564 248.764 50.928 249.252 50.392C249.74 49.848 250.336 49.424 251.04 49.12C251.744 48.808 252.536 48.652 253.416 48.652ZM253.464 50.224C252.432 50.224 251.62 50.524 251.028 51.124C250.436 51.716 250.068 52.54 249.924 53.596H256.536C256.536 53.1 256.468 52.648 256.332 52.24C256.196 51.824 255.996 51.468 255.732 51.172C255.468 50.868 255.144 50.636 254.76 50.476C254.384 50.308 253.952 50.224 253.464 50.224ZM261.19 61V48.844H262.414C262.646 48.844 262.806 48.888 262.894 48.976C262.982 49.064 263.042 49.216 263.074 49.432L263.218 51.328C263.634 50.48 264.146 49.82 264.754 49.348C265.37 48.868 266.09 48.628 266.914 48.628C267.25 48.628 267.554 48.668 267.826 48.748C268.098 48.82 268.35 48.924 268.582 49.06L268.306 50.656C268.25 50.856 268.126 50.956 267.934 50.956C267.822 50.956 267.65 50.92 267.418 50.848C267.186 50.768 266.862 50.728 266.446 50.728C265.702 50.728 265.078 50.944 264.574 51.376C264.078 51.808 263.662 52.436 263.326 53.26V61H261.19ZM275.51 61V48.844H276.734C276.966 48.844 277.126 48.888 277.214 48.976C277.302 49.064 277.362 49.216 277.394 49.432L277.538 51.328C277.954 50.48 278.466 49.82 279.074 49.348C279.69 48.868 280.41 48.628 281.234 48.628C281.57 48.628 281.874 48.668 282.146 48.748C282.418 48.82 282.67 48.924 282.902 49.06L282.626 50.656C282.57 50.856 282.446 50.956 282.254 50.956C282.142 50.956 281.97 50.92 281.738 50.848C281.506 50.768 281.182 50.728 280.766 50.728C280.022 50.728 279.398 50.944 278.894 51.376C278.398 51.808 277.982 52.436 277.646 53.26V61H275.51ZM287.566 48.844V61H285.43V48.844H287.566ZM288.046 45.028C288.046 45.236 288.002 45.432 287.914 45.616C287.834 45.792 287.722 45.952 287.578 46.096C287.442 46.232 287.282 46.34 287.098 46.42C286.914 46.5 286.718 46.54 286.51 46.54C286.302 46.54 286.106 46.5 285.922 46.42C285.746 46.34 285.586 46.232 285.442 46.096C285.306 45.952 285.198 45.792 285.118 45.616C285.038 45.432 284.998 45.236 284.998 45.028C284.998 44.82 285.038 44.624 285.118 44.44C285.198 44.248 285.306 44.084 285.442 43.948C285.586 43.804 285.746 43.692 285.922 43.612C286.106 43.532 286.302 43.492 286.51 43.492C286.718 43.492 286.914 43.532 287.098 43.612C287.282 43.692 287.442 43.804 287.578 43.948C287.722 44.084 287.834 44.248 287.914 44.44C288.002 44.624 288.046 44.82 288.046 45.028ZM295.422 48.64C295.95 48.64 296.442 48.7 296.898 48.82C297.362 48.932 297.782 49.1 298.158 49.324H301.458V50.116C301.458 50.38 301.29 50.548 300.954 50.62L299.574 50.812C299.846 51.332 299.982 51.912 299.982 52.552C299.982 53.144 299.866 53.684 299.634 54.172C299.41 54.652 299.094 55.064 298.686 55.408C298.286 55.752 297.806 56.016 297.246 56.2C296.694 56.384 296.086 56.476 295.422 56.476C294.854 56.476 294.318 56.408 293.814 56.272C293.558 56.432 293.362 56.604 293.226 56.788C293.098 56.972 293.034 57.152 293.034 57.328C293.034 57.616 293.15 57.836 293.382 57.988C293.614 58.132 293.922 58.236 294.306 58.3C294.69 58.364 295.126 58.404 295.614 58.42C296.102 58.436 296.598 58.464 297.102 58.504C297.614 58.536 298.114 58.596 298.602 58.684C299.09 58.772 299.526 58.916 299.91 59.116C300.294 59.316 300.602 59.592 300.834 59.944C301.066 60.296 301.182 60.752 301.182 61.312C301.182 61.832 301.05 62.336 300.786 62.824C300.53 63.312 300.158 63.744 299.67 64.12C299.182 64.504 298.586 64.808 297.882 65.032C297.178 65.264 296.382 65.38 295.494 65.38C294.606 65.38 293.826 65.292 293.154 65.116C292.49 64.94 291.938 64.704 291.498 64.408C291.058 64.112 290.726 63.768 290.502 63.376C290.286 62.992 290.178 62.588 290.178 62.164C290.178 61.564 290.366 61.056 290.742 60.64C291.126 60.216 291.65 59.88 292.314 59.632C291.97 59.472 291.694 59.26 291.486 58.996C291.286 58.724 291.186 58.364 291.186 57.916C291.186 57.74 291.218 57.56 291.282 57.376C291.346 57.184 291.442 56.996 291.57 56.812C291.706 56.628 291.87 56.452 292.062 56.284C292.254 56.116 292.478 55.968 292.734 55.84C292.134 55.504 291.662 55.06 291.318 54.508C290.982 53.948 290.814 53.296 290.814 52.552C290.814 51.96 290.926 51.424 291.15 50.944C291.382 50.456 291.702 50.044 292.11 49.708C292.518 49.364 293.002 49.1 293.562 48.916C294.13 48.732 294.75 48.64 295.422 48.64ZM299.214 61.66C299.214 61.356 299.13 61.112 298.962 60.928C298.794 60.744 298.566 60.604 298.278 60.508C297.99 60.404 297.658 60.328 297.282 60.28C296.906 60.232 296.51 60.2 296.094 60.184C295.678 60.16 295.254 60.136 294.822 60.112C294.39 60.088 293.978 60.044 293.586 59.98C293.13 60.196 292.758 60.46 292.47 60.772C292.19 61.084 292.05 61.456 292.05 61.888C292.05 62.16 292.118 62.412 292.254 62.644C292.398 62.884 292.614 63.088 292.902 63.256C293.19 63.432 293.55 63.568 293.982 63.664C294.422 63.768 294.938 63.82 295.53 63.82C296.106 63.82 296.622 63.768 297.078 63.664C297.534 63.56 297.918 63.412 298.23 63.22C298.55 63.028 298.794 62.8 298.962 62.536C299.13 62.272 299.214 61.98 299.214 61.66ZM295.422 55.06C295.854 55.06 296.234 55 296.562 54.88C296.898 54.76 297.178 54.592 297.402 54.376C297.626 54.16 297.794 53.904 297.906 53.608C298.018 53.304 298.074 52.972 298.074 52.612C298.074 51.868 297.846 51.276 297.39 50.836C296.942 50.396 296.286 50.176 295.422 50.176C294.566 50.176 293.91 50.396 293.454 50.836C293.006 51.276 292.782 51.868 292.782 52.612C292.782 52.972 292.838 53.304 292.95 53.608C293.07 53.904 293.242 54.16 293.466 54.376C293.69 54.592 293.966 54.76 294.294 54.88C294.622 55 294.998 55.06 295.422 55.06ZM303.588 61V43.324H305.724V50.476C306.244 49.924 306.82 49.484 307.452 49.156C308.084 48.82 308.812 48.652 309.636 48.652C310.3 48.652 310.884 48.764 311.388 48.988C311.9 49.204 312.324 49.516 312.66 49.924C313.004 50.324 313.264 50.808 313.44 51.376C313.616 51.944 313.704 52.572 313.704 53.26V61H311.568V53.26C311.568 52.34 311.356 51.628 310.932 51.124C310.516 50.612 309.876 50.356 309.012 50.356C308.38 50.356 307.788 50.508 307.236 50.812C306.692 51.116 306.188 51.528 305.724 52.048V61H303.588ZM320.608 61.192C319.648 61.192 318.908 60.924 318.388 60.388C317.876 59.852 317.62 59.08 317.62 58.072V50.632H316.156C316.028 50.632 315.92 50.596 315.832 50.524C315.744 50.444 315.7 50.324 315.7 50.164V49.312L317.692 49.06L318.184 45.304C318.2 45.184 318.252 45.088 318.34 45.016C318.428 44.936 318.54 44.896 318.676 44.896H319.756V49.084H323.236V50.632H319.756V57.928C319.756 58.44 319.88 58.82 320.128 59.068C320.376 59.316 320.696 59.44 321.088 59.44C321.312 59.44 321.504 59.412 321.664 59.356C321.832 59.292 321.976 59.224 322.096 59.152C322.216 59.08 322.316 59.016 322.396 58.96C322.484 58.896 322.56 58.864 322.624 58.864C322.736 58.864 322.836 58.932 322.924 59.068L323.548 60.088C323.18 60.432 322.736 60.704 322.216 60.904C321.696 61.096 321.16 61.192 320.608 61.192ZM335.438 48.652C336.326 48.652 337.126 48.8 337.838 49.096C338.558 49.392 339.166 49.812 339.662 50.356C340.166 50.9 340.55 51.56 340.814 52.336C341.086 53.104 341.222 53.964 341.222 54.916C341.222 55.876 341.086 56.74 340.814 57.508C340.55 58.276 340.166 58.932 339.662 59.476C339.166 60.02 338.558 60.44 337.838 60.736C337.126 61.024 336.326 61.168 335.438 61.168C334.55 61.168 333.746 61.024 333.026 60.736C332.314 60.44 331.706 60.02 331.202 59.476C330.698 58.932 330.31 58.276 330.038 57.508C329.766 56.74 329.63 55.876 329.63 54.916C329.63 53.964 329.766 53.104 330.038 52.336C330.31 51.56 330.698 50.9 331.202 50.356C331.706 49.812 332.314 49.392 333.026 49.096C333.746 48.8 334.55 48.652 335.438 48.652ZM335.438 59.5C336.638 59.5 337.534 59.1 338.126 58.3C338.718 57.492 339.014 56.368 339.014 54.928C339.014 53.48 338.718 52.352 338.126 51.544C337.534 50.736 336.638 50.332 335.438 50.332C334.83 50.332 334.302 50.436 333.854 50.644C333.406 50.852 333.03 51.152 332.726 51.544C332.43 51.936 332.206 52.42 332.054 52.996C331.91 53.564 331.838 54.208 331.838 54.928C331.838 55.648 331.91 56.292 332.054 56.86C332.206 57.428 332.43 57.908 332.726 58.3C333.03 58.684 333.406 58.98 333.854 59.188C334.302 59.396 334.83 59.5 335.438 59.5ZM343.854 65.116V48.844H345.126C345.43 48.844 345.622 48.992 345.702 49.288L345.882 50.728C346.402 50.096 346.994 49.588 347.658 49.204C348.33 48.82 349.102 48.628 349.974 48.628C350.67 48.628 351.302 48.764 351.87 49.036C352.438 49.3 352.922 49.696 353.322 50.224C353.722 50.744 354.03 51.392 354.246 52.168C354.462 52.944 354.57 53.836 354.57 54.844C354.57 55.74 354.45 56.576 354.21 57.352C353.97 58.12 353.626 58.788 353.178 59.356C352.73 59.916 352.178 60.36 351.522 60.688C350.874 61.008 350.142 61.168 349.326 61.168C348.574 61.168 347.93 61.044 347.394 60.796C346.866 60.548 346.398 60.196 345.99 59.74V65.116H343.854ZM349.266 50.356C348.57 50.356 347.958 50.516 347.43 50.836C346.91 51.156 346.43 51.608 345.99 52.192V58.072C346.382 58.6 346.81 58.972 347.274 59.188C347.746 59.404 348.27 59.512 348.846 59.512C349.974 59.512 350.842 59.108 351.45 58.3C352.058 57.492 352.362 56.34 352.362 54.844C352.362 54.052 352.29 53.372 352.146 52.804C352.01 52.236 351.81 51.772 351.546 51.412C351.282 51.044 350.958 50.776 350.574 50.608C350.19 50.44 349.754 50.356 349.266 50.356ZM360.78 61.192C359.82 61.192 359.08 60.924 358.56 60.388C358.048 59.852 357.792 59.08 357.792 58.072V50.632H356.328C356.2 50.632 356.092 50.596 356.004 50.524C355.916 50.444 355.872 50.324 355.872 50.164V49.312L357.864 49.06L358.356 45.304C358.372 45.184 358.424 45.088 358.512 45.016C358.6 44.936 358.712 44.896 358.848 44.896H359.928V49.084H363.408V50.632H359.928V57.928C359.928 58.44 360.052 58.82 360.3 59.068C360.548 59.316 360.868 59.44 361.26 59.44C361.484 59.44 361.676 59.412 361.836 59.356C362.004 59.292 362.148 59.224 362.268 59.152C362.388 59.08 362.488 59.016 362.568 58.96C362.656 58.896 362.732 58.864 362.796 58.864C362.908 58.864 363.008 58.932 363.096 59.068L363.72 60.088C363.352 60.432 362.908 60.704 362.388 60.904C361.868 61.096 361.332 61.192 360.78 61.192ZM368.425 48.844V61H366.289V48.844H368.425ZM368.905 45.028C368.905 45.236 368.861 45.432 368.773 45.616C368.693 45.792 368.581 45.952 368.437 46.096C368.301 46.232 368.141 46.34 367.957 46.42C367.773 46.5 367.577 46.54 367.369 46.54C367.161 46.54 366.965 46.5 366.781 46.42C366.605 46.34 366.445 46.232 366.301 46.096C366.165 45.952 366.057 45.792 365.977 45.616C365.897 45.432 365.857 45.236 365.857 45.028C365.857 44.82 365.897 44.624 365.977 44.44C366.057 44.248 366.165 44.084 366.301 43.948C366.445 43.804 366.605 43.692 366.781 43.612C366.965 43.532 367.161 43.492 367.369 43.492C367.577 43.492 367.773 43.532 367.957 43.612C368.141 43.692 368.301 43.804 368.437 43.948C368.581 44.084 368.693 44.248 368.773 44.44C368.861 44.624 368.905 44.82 368.905 45.028ZM377.11 48.652C377.998 48.652 378.798 48.8 379.51 49.096C380.23 49.392 380.838 49.812 381.334 50.356C381.838 50.9 382.222 51.56 382.486 52.336C382.758 53.104 382.894 53.964 382.894 54.916C382.894 55.876 382.758 56.74 382.486 57.508C382.222 58.276 381.838 58.932 381.334 59.476C380.838 60.02 380.23 60.44 379.51 60.736C378.798 61.024 377.998 61.168 377.11 61.168C376.222 61.168 375.418 61.024 374.698 60.736C373.986 60.44 373.378 60.02 372.874 59.476C372.37 58.932 371.982 58.276 371.71 57.508C371.438 56.74 371.302 55.876 371.302 54.916C371.302 53.964 371.438 53.104 371.71 52.336C371.982 51.56 372.37 50.9 372.874 50.356C373.378 49.812 373.986 49.392 374.698 49.096C375.418 48.8 376.222 48.652 377.11 48.652ZM377.11 59.5C378.31 59.5 379.206 59.1 379.798 58.3C380.39 57.492 380.686 56.368 380.686 54.928C380.686 53.48 380.39 52.352 379.798 51.544C379.206 50.736 378.31 50.332 377.11 50.332C376.502 50.332 375.974 50.436 375.526 50.644C375.078 50.852 374.702 51.152 374.398 51.544C374.102 51.936 373.878 52.42 373.726 52.996C373.582 53.564 373.51 54.208 373.51 54.928C373.51 55.648 373.582 56.292 373.726 56.86C373.878 57.428 374.102 57.908 374.398 58.3C374.702 58.684 375.078 58.98 375.526 59.188C375.974 59.396 376.502 59.5 377.11 59.5ZM385.525 61V48.844H386.797C387.101 48.844 387.293 48.992 387.373 49.288L387.541 50.608C388.069 50.024 388.657 49.552 389.305 49.192C389.961 48.832 390.717 48.652 391.573 48.652C392.237 48.652 392.821 48.764 393.325 48.988C393.837 49.204 394.261 49.516 394.597 49.924C394.941 50.324 395.201 50.808 395.377 51.376C395.553 51.944 395.641 52.572 395.641 53.26V61H393.505V53.26C393.505 52.34 393.293 51.628 392.869 51.124C392.453 50.612 391.813 50.356 390.949 50.356C390.317 50.356 389.725 50.508 389.173 50.812C388.629 51.116 388.125 51.528 387.661 52.048V61H385.525ZM408.422 48.652C409.31 48.652 410.11 48.8 410.822 49.096C411.542 49.392 412.15 49.812 412.646 50.356C413.15 50.9 413.534 51.56 413.798 52.336C414.07 53.104 414.206 53.964 414.206 54.916C414.206 55.876 414.07 56.74 413.798 57.508C413.534 58.276 413.15 58.932 412.646 59.476C412.15 60.02 411.542 60.44 410.822 60.736C410.11 61.024 409.31 61.168 408.422 61.168C407.534 61.168 406.73 61.024 406.01 60.736C405.298 60.44 404.69 60.02 404.186 59.476C403.682 58.932 403.294 58.276 403.022 57.508C402.75 56.74 402.614 55.876 402.614 54.916C402.614 53.964 402.75 53.104 403.022 52.336C403.294 51.56 403.682 50.9 404.186 50.356C404.69 49.812 405.298 49.392 406.01 49.096C406.73 48.8 407.534 48.652 408.422 48.652ZM408.422 59.5C409.622 59.5 410.518 59.1 411.11 58.3C411.702 57.492 411.998 56.368 411.998 54.928C411.998 53.48 411.702 52.352 411.11 51.544C410.518 50.736 409.622 50.332 408.422 50.332C407.814 50.332 407.286 50.436 406.838 50.644C406.39 50.852 406.014 51.152 405.71 51.544C405.414 51.936 405.19 52.42 405.038 52.996C404.894 53.564 404.822 54.208 404.822 54.928C404.822 55.648 404.894 56.292 405.038 56.86C405.19 57.428 405.414 57.908 405.71 58.3C406.014 58.684 406.39 58.98 406.838 59.188C407.286 59.396 407.814 59.5 408.422 59.5ZM416.838 61V48.844H418.11C418.414 48.844 418.606 48.992 418.686 49.288L418.854 50.608C419.382 50.024 419.97 49.552 420.618 49.192C421.274 48.832 422.03 48.652 422.886 48.652C423.55 48.652 424.134 48.764 424.638 48.988C425.15 49.204 425.574 49.516 425.91 49.924C426.254 50.324 426.514 50.808 426.69 51.376C426.866 51.944 426.954 52.572 426.954 53.26V61H424.818V53.26C424.818 52.34 424.606 51.628 424.182 51.124C423.766 50.612 423.126 50.356 422.262 50.356C421.63 50.356 421.038 50.508 420.486 50.812C419.942 51.116 419.438 51.528 418.974 52.048V61H416.838ZM443.743 61H442.795C442.587 61 442.419 60.968 442.291 60.904C442.163 60.84 442.079 60.704 442.039 60.496L441.799 59.368C441.479 59.656 441.167 59.916 440.863 60.148C440.559 60.372 440.239 60.564 439.903 60.724C439.567 60.876 439.207 60.992 438.823 61.072C438.447 61.152 438.027 61.192 437.563 61.192C437.091 61.192 436.647 61.128 436.23 61C435.823 60.864 435.467 60.664 435.163 60.4C434.859 60.136 434.615 59.804 434.431 59.404C434.255 58.996 434.167 58.516 434.167 57.964C434.167 57.484 434.299 57.024 434.562 56.584C434.827 56.136 435.251 55.74 435.835 55.396C436.427 55.052 437.199 54.772 438.151 54.556C439.103 54.332 440.267 54.204 441.643 54.172V53.224C441.643 52.28 441.439 51.568 441.031 51.088C440.631 50.6 440.035 50.356 439.243 50.356C438.723 50.356 438.283 50.424 437.923 50.56C437.571 50.688 437.263 50.836 436.999 51.004C436.743 51.164 436.519 51.312 436.327 51.448C436.143 51.576 435.959 51.64 435.775 51.64C435.631 51.64 435.503 51.604 435.391 51.532C435.287 51.452 435.203 51.356 435.139 51.244L434.755 50.56C435.427 49.912 436.151 49.428 436.927 49.108C437.703 48.788 438.563 48.628 439.507 48.628C440.187 48.628 440.791 48.74 441.319 48.964C441.847 49.188 442.291 49.5 442.651 49.9C443.011 50.3 443.283 50.784 443.467 51.352C443.651 51.92 443.743 52.544 443.743 53.224V61ZM438.199 59.692C438.575 59.692 438.919 59.656 439.23 59.584C439.543 59.504 439.835 59.396 440.107 59.26C440.387 59.116 440.651 58.944 440.899 58.744C441.155 58.544 441.403 58.316 441.643 58.06V55.528C440.659 55.56 439.823 55.64 439.135 55.768C438.447 55.888 437.887 56.048 437.455 56.248C437.023 56.448 436.707 56.684 436.507 56.956C436.315 57.228 436.219 57.532 436.219 57.868C436.219 58.188 436.271 58.464 436.375 58.696C436.479 58.928 436.619 59.12 436.795 59.272C436.971 59.416 437.179 59.524 437.419 59.596C437.659 59.66 437.919 59.692 438.199 59.692ZM449.355 43.324V61H447.219V43.324H449.355ZM455.495 43.324V61H453.359V43.324H455.495ZM467.584 61.192C466.624 61.192 465.884 60.924 465.364 60.388C464.852 59.852 464.596 59.08 464.596 58.072V50.632H463.132C463.004 50.632 462.896 50.596 462.808 50.524C462.72 50.444 462.676 50.324 462.676 50.164V49.312L464.668 49.06L465.16 45.304C465.176 45.184 465.228 45.088 465.316 45.016C465.404 44.936 465.516 44.896 465.652 44.896H466.732V49.084H470.212V50.632H466.732V57.928C466.732 58.44 466.856 58.82 467.104 59.068C467.352 59.316 467.672 59.44 468.064 59.44C468.288 59.44 468.48 59.412 468.64 59.356C468.808 59.292 468.952 59.224 469.072 59.152C469.192 59.08 469.292 59.016 469.372 58.96C469.46 58.896 469.536 58.864 469.6 58.864C469.712 58.864 469.812 58.932 469.9 59.068L470.524 60.088C470.156 60.432 469.712 60.704 469.192 60.904C468.672 61.096 468.136 61.192 467.584 61.192ZM472.854 61V43.324H474.99V50.476C475.51 49.924 476.086 49.484 476.718 49.156C477.35 48.82 478.078 48.652 478.902 48.652C479.566 48.652 480.15 48.764 480.654 48.988C481.166 49.204 481.59 49.516 481.926 49.924C482.27 50.324 482.53 50.808 482.706 51.376C482.882 51.944 482.97 52.572 482.97 53.26V61H480.834V53.26C480.834 52.34 480.622 51.628 480.198 51.124C479.782 50.612 479.142 50.356 478.278 50.356C477.646 50.356 477.054 50.508 476.502 50.812C475.958 51.116 475.454 51.528 474.99 52.048V61H472.854ZM491.002 48.652C491.73 48.652 492.402 48.776 493.018 49.024C493.634 49.264 494.166 49.616 494.614 50.08C495.062 50.536 495.41 51.104 495.658 51.784C495.914 52.456 496.042 53.224 496.042 54.088C496.042 54.424 496.006 54.648 495.934 54.76C495.862 54.872 495.726 54.928 495.526 54.928H487.438C487.454 55.696 487.558 56.364 487.75 56.932C487.942 57.5 488.206 57.976 488.542 58.36C488.878 58.736 489.278 59.02 489.742 59.212C490.206 59.396 490.726 59.488 491.302 59.488C491.838 59.488 492.298 59.428 492.682 59.308C493.074 59.18 493.41 59.044 493.69 58.9C493.97 58.756 494.202 58.624 494.386 58.504C494.578 58.376 494.742 58.312 494.878 58.312C495.054 58.312 495.19 58.38 495.286 58.516L495.886 59.296C495.622 59.616 495.306 59.896 494.938 60.136C494.57 60.368 494.174 60.56 493.75 60.712C493.334 60.864 492.902 60.976 492.454 61.048C492.006 61.128 491.562 61.168 491.122 61.168C490.282 61.168 489.506 61.028 488.794 60.748C488.09 60.46 487.478 60.044 486.958 59.5C486.446 58.948 486.046 58.268 485.758 57.46C485.47 56.652 485.326 55.724 485.326 54.676C485.326 53.828 485.454 53.036 485.71 52.3C485.974 51.564 486.35 50.928 486.838 50.392C487.326 49.848 487.922 49.424 488.626 49.12C489.33 48.808 490.122 48.652 491.002 48.652ZM491.049 50.224C490.018 50.224 489.206 50.524 488.614 51.124C488.022 51.716 487.654 52.54 487.51 53.596H494.122C494.122 53.1 494.054 52.648 493.918 52.24C493.782 51.824 493.582 51.468 493.318 51.172C493.054 50.868 492.73 50.636 492.346 50.476C491.97 50.308 491.538 50.224 491.049 50.224ZM503.896 61V50.668L502.552 50.512C502.384 50.472 502.244 50.412 502.132 50.332C502.028 50.244 501.976 50.12 501.976 49.96V49.084H503.896V47.908C503.896 47.212 503.992 46.596 504.184 46.06C504.384 45.516 504.664 45.06 505.024 44.692C505.392 44.316 505.832 44.032 506.344 43.84C506.856 43.648 507.432 43.552 508.072 43.552C508.616 43.552 509.12 43.632 509.584 43.792L509.536 44.86C509.528 45.02 509.46 45.116 509.332 45.148C509.204 45.18 509.024 45.196 508.792 45.196H508.42C508.052 45.196 507.716 45.244 507.412 45.34C507.116 45.436 506.86 45.592 506.644 45.808C506.428 46.024 506.26 46.308 506.14 46.66C506.028 47.012 505.972 47.448 505.972 47.968V49.084H509.488V50.632H506.044V61H503.896ZM516.422 48.652C517.31 48.652 518.11 48.8 518.822 49.096C519.542 49.392 520.15 49.812 520.646 50.356C521.15 50.9 521.534 51.56 521.798 52.336C522.07 53.104 522.206 53.964 522.206 54.916C522.206 55.876 522.07 56.74 521.798 57.508C521.534 58.276 521.15 58.932 520.646 59.476C520.15 60.02 519.542 60.44 518.822 60.736C518.11 61.024 517.31 61.168 516.422 61.168C515.534 61.168 514.73 61.024 514.01 60.736C513.298 60.44 512.69 60.02 512.186 59.476C511.682 58.932 511.294 58.276 511.022 57.508C510.75 56.74 510.614 55.876 510.614 54.916C510.614 53.964 510.75 53.104 511.022 52.336C511.294 51.56 511.682 50.9 512.186 50.356C512.69 49.812 513.298 49.392 514.01 49.096C514.73 48.8 515.534 48.652 516.422 48.652ZM516.422 59.5C517.622 59.5 518.518 59.1 519.11 58.3C519.702 57.492 519.998 56.368 519.998 54.928C519.998 53.48 519.702 52.352 519.11 51.544C518.518 50.736 517.622 50.332 516.422 50.332C515.814 50.332 515.286 50.436 514.838 50.644C514.39 50.852 514.014 51.152 513.71 51.544C513.414 51.936 513.19 52.42 513.038 52.996C512.894 53.564 512.822 54.208 512.822 54.928C512.822 55.648 512.894 56.292 513.038 56.86C513.19 57.428 513.414 57.908 513.71 58.3C514.014 58.684 514.39 58.98 514.838 59.188C515.286 59.396 515.814 59.5 516.422 59.5ZM527.214 43.324V61H525.078V43.324H527.214ZM533.355 43.324V61H531.219V43.324H533.355ZM542.039 48.652C542.927 48.652 543.727 48.8 544.439 49.096C545.159 49.392 545.767 49.812 546.263 50.356C546.767 50.9 547.151 51.56 547.415 52.336C547.687 53.104 547.823 53.964 547.823 54.916C547.823 55.876 547.687 56.74 547.415 57.508C547.151 58.276 546.767 58.932 546.263 59.476C545.767 60.02 545.159 60.44 544.439 60.736C543.727 61.024 542.927 61.168 542.039 61.168C541.151 61.168 540.347 61.024 539.627 60.736C538.915 60.44 538.307 60.02 537.803 59.476C537.299 58.932 536.911 58.276 536.639 57.508C536.367 56.74 536.231 55.876 536.231 54.916C536.231 53.964 536.367 53.104 536.639 52.336C536.911 51.56 537.299 50.9 537.803 50.356C538.307 49.812 538.915 49.392 539.627 49.096C540.347 48.8 541.151 48.652 542.039 48.652ZM542.039 59.5C543.239 59.5 544.135 59.1 544.727 58.3C545.319 57.492 545.615 56.368 545.615 54.928C545.615 53.48 545.319 52.352 544.727 51.544C544.135 50.736 543.239 50.332 542.039 50.332C541.431 50.332 540.903 50.436 540.455 50.644C540.007 50.852 539.631 51.152 539.327 51.544C539.031 51.936 538.807 52.42 538.655 52.996C538.511 53.564 538.439 54.208 538.439 54.928C538.439 55.648 538.511 56.292 538.655 56.86C538.807 57.428 539.031 57.908 539.327 58.3C539.631 58.684 540.007 58.98 540.455 59.188C540.903 59.396 541.431 59.5 542.039 59.5ZM548.871 48.844H550.551C550.727 48.844 550.871 48.888 550.983 48.976C551.095 49.064 551.171 49.168 551.211 49.288L553.539 57.112C553.603 57.4 553.663 57.68 553.719 57.952C553.775 58.216 553.823 58.484 553.863 58.756C553.927 58.484 553.999 58.216 554.079 57.952C554.159 57.68 554.243 57.4 554.331 57.112L556.899 49.24C556.939 49.12 557.007 49.02 557.103 48.94C557.207 48.86 557.335 48.82 557.487 48.82H558.411C558.571 48.82 558.703 48.86 558.807 48.94C558.911 49.02 558.983 49.12 559.023 49.24L561.531 57.112C561.619 57.392 561.695 57.668 561.759 57.94C561.831 58.212 561.899 58.48 561.963 58.744C562.003 58.48 562.055 58.204 562.119 57.916C562.183 57.628 562.251 57.36 562.323 57.112L564.699 49.288C564.739 49.16 564.815 49.056 564.927 48.976C565.039 48.888 565.171 48.844 565.323 48.844H566.931L562.995 61H561.303C561.095 61 560.951 60.864 560.871 60.592L558.183 52.348C558.119 52.164 558.067 51.98 558.027 51.796C557.987 51.604 557.947 51.416 557.907 51.232C557.867 51.416 557.827 51.604 557.787 51.796C557.747 51.988 557.695 52.176 557.631 52.36L554.907 60.592C554.819 60.864 554.655 61 554.415 61H552.807L548.871 48.844ZM571.206 48.844V61H569.07V48.844H571.206ZM571.686 45.028C571.686 45.236 571.642 45.432 571.554 45.616C571.474 45.792 571.362 45.952 571.218 46.096C571.082 46.232 570.922 46.34 570.738 46.42C570.554 46.5 570.358 46.54 570.15 46.54C569.942 46.54 569.746 46.5 569.562 46.42C569.386 46.34 569.226 46.232 569.082 46.096C568.946 45.952 568.838 45.792 568.758 45.616C568.678 45.432 568.638 45.236 568.638 45.028C568.638 44.82 568.678 44.624 568.758 44.44C568.838 44.248 568.946 44.084 569.082 43.948C569.226 43.804 569.386 43.692 569.562 43.612C569.746 43.532 569.942 43.492 570.15 43.492C570.358 43.492 570.554 43.532 570.738 43.612C570.922 43.692 571.082 43.804 571.218 43.948C571.362 44.084 571.474 44.248 571.554 44.44C571.642 44.624 571.686 44.82 571.686 45.028ZM574.971 61V48.844H576.243C576.547 48.844 576.739 48.992 576.819 49.288L576.987 50.608C577.515 50.024 578.103 49.552 578.751 49.192C579.407 48.832 580.163 48.652 581.019 48.652C581.683 48.652 582.267 48.764 582.771 48.988C583.283 49.204 583.707 49.516 584.043 49.924C584.387 50.324 584.647 50.808 584.823 51.376C584.999 51.944 585.087 52.572 585.087 53.26V61H582.951V53.26C582.951 52.34 582.739 51.628 582.315 51.124C581.899 50.612 581.259 50.356 580.395 50.356C579.763 50.356 579.171 50.508 578.619 50.812C578.075 51.116 577.571 51.528 577.107 52.048V61H574.971ZM592.399 48.64C592.927 48.64 593.419 48.7 593.875 48.82C594.339 48.932 594.759 49.1 595.135 49.324H598.435V50.116C598.435 50.38 598.267 50.548 597.931 50.62L596.551 50.812C596.823 51.332 596.959 51.912 596.959 52.552C596.959 53.144 596.843 53.684 596.611 54.172C596.387 54.652 596.071 55.064 595.663 55.408C595.263 55.752 594.783 56.016 594.223 56.2C593.671 56.384 593.063 56.476 592.399 56.476C591.831 56.476 591.295 56.408 590.791 56.272C590.535 56.432 590.339 56.604 590.203 56.788C590.075 56.972 590.011 57.152 590.011 57.328C590.011 57.616 590.127 57.836 590.359 57.988C590.591 58.132 590.899 58.236 591.283 58.3C591.667 58.364 592.103 58.404 592.591 58.42C593.079 58.436 593.575 58.464 594.079 58.504C594.591 58.536 595.091 58.596 595.579 58.684C596.067 58.772 596.503 58.916 596.887 59.116C597.271 59.316 597.579 59.592 597.811 59.944C598.043 60.296 598.159 60.752 598.159 61.312C598.159 61.832 598.027 62.336 597.763 62.824C597.507 63.312 597.135 63.744 596.647 64.12C596.159 64.504 595.563 64.808 594.859 65.032C594.155 65.264 593.359 65.38 592.471 65.38C591.583 65.38 590.803 65.292 590.131 65.116C589.467 64.94 588.915 64.704 588.475 64.408C588.035 64.112 587.703 63.768 587.479 63.376C587.263 62.992 587.155 62.588 587.155 62.164C587.155 61.564 587.343 61.056 587.719 60.64C588.103 60.216 588.627 59.88 589.291 59.632C588.947 59.472 588.671 59.26 588.463 58.996C588.263 58.724 588.163 58.364 588.163 57.916C588.163 57.74 588.195 57.56 588.259 57.376C588.323 57.184 588.419 56.996 588.547 56.812C588.683 56.628 588.847 56.452 589.039 56.284C589.231 56.116 589.455 55.968 589.711 55.84C589.111 55.504 588.639 55.06 588.295 54.508C587.959 53.948 587.791 53.296 587.791 52.552C587.791 51.96 587.903 51.424 588.127 50.944C588.359 50.456 588.679 50.044 589.087 49.708C589.495 49.364 589.979 49.1 590.539 48.916C591.107 48.732 591.727 48.64 592.399 48.64ZM596.191 61.66C596.191 61.356 596.107 61.112 595.939 60.928C595.771 60.744 595.543 60.604 595.255 60.508C594.967 60.404 594.635 60.328 594.259 60.28C593.883 60.232 593.487 60.2 593.071 60.184C592.655 60.16 592.231 60.136 591.799 60.112C591.367 60.088 590.955 60.044 590.563 59.98C590.107 60.196 589.735 60.46 589.447 60.772C589.167 61.084 589.027 61.456 589.027 61.888C589.027 62.16 589.095 62.412 589.231 62.644C589.375 62.884 589.591 63.088 589.879 63.256C590.167 63.432 590.527 63.568 590.959 63.664C591.399 63.768 591.915 63.82 592.507 63.82C593.083 63.82 593.599 63.768 594.055 63.664C594.511 63.56 594.895 63.412 595.207 63.22C595.527 63.028 595.771 62.8 595.939 62.536C596.107 62.272 596.191 61.98 596.191 61.66ZM592.399 55.06C592.831 55.06 593.211 55 593.539 54.88C593.875 54.76 594.155 54.592 594.379 54.376C594.603 54.16 594.771 53.904 594.883 53.608C594.995 53.304 595.051 52.972 595.051 52.612C595.051 51.868 594.823 51.276 594.367 50.836C593.919 50.396 593.263 50.176 592.399 50.176C591.543 50.176 590.887 50.396 590.431 50.836C589.983 51.276 589.759 51.868 589.759 52.612C589.759 52.972 589.815 53.304 589.927 53.608C590.047 53.904 590.219 54.16 590.443 54.376C590.667 54.592 590.943 54.76 591.271 54.88C591.599 55 591.975 55.06 592.399 55.06ZM615.033 48.844V65.116H612.897V59.2C612.385 59.792 611.801 60.268 611.145 60.628C610.497 60.988 609.753 61.168 608.913 61.168C608.217 61.168 607.585 61.036 607.017 60.772C606.449 60.5 605.965 60.104 605.565 59.584C605.165 59.064 604.857 58.416 604.641 57.64C604.425 56.864 604.317 55.972 604.317 54.964C604.317 54.068 604.437 53.236 604.677 52.468C604.917 51.692 605.261 51.02 605.709 50.452C606.165 49.884 606.717 49.44 607.365 49.12C608.013 48.792 608.749 48.628 609.573 48.628C610.357 48.628 611.021 48.768 611.565 49.048C612.117 49.328 612.609 49.724 613.041 50.236L613.185 49.288C613.265 48.992 613.457 48.844 613.761 48.844H615.033ZM609.621 59.44C610.317 59.44 610.925 59.28 611.445 58.96C611.973 58.64 612.457 58.188 612.897 57.604V51.724C612.513 51.212 612.085 50.848 611.613 50.632C611.141 50.408 610.621 50.296 610.053 50.296C608.917 50.296 608.045 50.7 607.437 51.508C606.829 52.316 606.525 53.468 606.525 54.964C606.525 55.756 606.593 56.436 606.729 57.004C606.865 57.564 607.065 58.028 607.329 58.396C607.593 58.756 607.917 59.02 608.301 59.188C608.685 59.356 609.125 59.44 609.621 59.44ZM620.459 48.844V56.596C620.459 57.516 620.671 58.228 621.095 58.732C621.519 59.236 622.159 59.488 623.015 59.488C623.639 59.488 624.227 59.34 624.779 59.044C625.331 58.748 625.839 58.336 626.303 57.808V48.844H628.439V61H627.167C626.863 61 626.671 60.852 626.591 60.556L626.423 59.248C625.895 59.832 625.303 60.304 624.647 60.664C623.991 61.016 623.239 61.192 622.391 61.192C621.727 61.192 621.139 61.084 620.627 60.868C620.123 60.644 619.699 60.332 619.355 59.932C619.011 59.532 618.751 59.048 618.575 58.48C618.407 57.912 618.323 57.284 618.323 56.596V48.844H620.459ZM636.759 48.652C637.487 48.652 638.159 48.776 638.775 49.024C639.391 49.264 639.923 49.616 640.371 50.08C640.819 50.536 641.167 51.104 641.415 51.784C641.671 52.456 641.799 53.224 641.799 54.088C641.799 54.424 641.763 54.648 641.691 54.76C641.619 54.872 641.483 54.928 641.283 54.928H633.195C633.211 55.696 633.315 56.364 633.507 56.932C633.699 57.5 633.963 57.976 634.299 58.36C634.635 58.736 635.035 59.02 635.499 59.212C635.963 59.396 636.483 59.488 637.059 59.488C637.595 59.488 638.055 59.428 638.439 59.308C638.831 59.18 639.167 59.044 639.447 58.9C639.727 58.756 639.959 58.624 640.143 58.504C640.335 58.376 640.499 58.312 640.635 58.312C640.811 58.312 640.947 58.38 641.043 58.516L641.643 59.296C641.379 59.616 641.063 59.896 640.695 60.136C640.327 60.368 639.931 60.56 639.507 60.712C639.091 60.864 638.659 60.976 638.211 61.048C637.763 61.128 637.319 61.168 636.879 61.168C636.039 61.168 635.263 61.028 634.551 60.748C633.847 60.46 633.235 60.044 632.715 59.5C632.203 58.948 631.803 58.268 631.515 57.46C631.227 56.652 631.083 55.724 631.083 54.676C631.083 53.828 631.211 53.036 631.467 52.3C631.731 51.564 632.107 50.928 632.595 50.392C633.083 49.848 633.679 49.424 634.383 49.12C635.087 48.808 635.879 48.652 636.759 48.652ZM636.807 50.224C635.775 50.224 634.963 50.524 634.371 51.124C633.779 51.716 633.411 52.54 633.267 53.596H639.879C639.879 53.1 639.811 52.648 639.675 52.24C639.539 51.824 639.339 51.468 639.075 51.172C638.811 50.868 638.487 50.636 638.103 50.476C637.727 50.308 637.295 50.224 636.807 50.224ZM651.493 50.848C651.397 51.024 651.249 51.112 651.049 51.112C650.929 51.112 650.793 51.068 650.641 50.98C650.489 50.892 650.301 50.796 650.077 50.692C649.861 50.58 649.601 50.48 649.297 50.392C648.993 50.296 648.633 50.248 648.217 50.248C647.857 50.248 647.533 50.296 647.245 50.392C646.957 50.48 646.709 50.604 646.501 50.764C646.301 50.924 646.145 51.112 646.033 51.328C645.929 51.536 645.877 51.764 645.877 52.012C645.877 52.324 645.965 52.584 646.141 52.792C646.325 53 646.565 53.18 646.861 53.332C647.157 53.484 647.493 53.62 647.869 53.74C648.245 53.852 648.629 53.976 649.021 54.112C649.421 54.24 649.809 54.384 650.185 54.544C650.561 54.704 650.897 54.904 651.193 55.144C651.489 55.384 651.725 55.68 651.901 56.032C652.085 56.376 652.177 56.792 652.177 57.28C652.177 57.84 652.077 58.36 651.877 58.84C651.677 59.312 651.381 59.724 650.989 60.076C650.597 60.42 650.117 60.692 649.549 60.892C648.981 61.092 648.325 61.192 647.581 61.192C646.733 61.192 645.965 61.056 645.277 60.784C644.589 60.504 644.005 60.148 643.525 59.716L644.029 58.9C644.093 58.796 644.169 58.716 644.257 58.66C644.345 58.604 644.461 58.576 644.605 58.576C644.749 58.576 644.901 58.632 645.061 58.744C645.221 58.856 645.413 58.98 645.637 59.116C645.869 59.252 646.145 59.376 646.465 59.488C646.793 59.6 647.201 59.656 647.689 59.656C648.105 59.656 648.469 59.604 648.781 59.5C649.093 59.388 649.353 59.24 649.561 59.056C649.769 58.872 649.921 58.66 650.017 58.42C650.121 58.18 650.173 57.924 650.173 57.652C650.173 57.316 650.081 57.04 649.897 56.824C649.721 56.6 649.485 56.412 649.189 56.26C648.893 56.1 648.553 55.964 648.169 55.852C647.793 55.732 647.405 55.608 647.005 55.48C646.613 55.352 646.225 55.208 645.841 55.048C645.465 54.88 645.129 54.672 644.833 54.424C644.537 54.176 644.297 53.872 644.113 53.512C643.937 53.144 643.849 52.7 643.849 52.18C643.849 51.716 643.945 51.272 644.137 50.848C644.329 50.416 644.609 50.04 644.977 49.72C645.345 49.392 645.797 49.132 646.333 48.94C646.869 48.748 647.481 48.652 648.169 48.652C648.969 48.652 649.685 48.78 650.317 49.036C650.957 49.284 651.509 49.628 651.973 50.068L651.493 50.848ZM658.624 61.192C657.664 61.192 656.924 60.924 656.404 60.388C655.892 59.852 655.636 59.08 655.636 58.072V50.632H654.172C654.044 50.632 653.936 50.596 653.848 50.524C653.76 50.444 653.716 50.324 653.716 50.164V49.312L655.708 49.06L656.2 45.304C656.216 45.184 656.268 45.088 656.355 45.016C656.444 44.936 656.556 44.896 656.692 44.896H657.772V49.084H661.252V50.632H657.772V57.928C657.772 58.44 657.896 58.82 658.144 59.068C658.392 59.316 658.712 59.44 659.104 59.44C659.328 59.44 659.52 59.412 659.68 59.356C659.848 59.292 659.992 59.224 660.112 59.152C660.232 59.08 660.332 59.016 660.412 58.96C660.5 58.896 660.576 58.864 660.64 58.864C660.752 58.864 660.852 58.932 660.94 59.068L661.564 60.088C661.196 60.432 660.752 60.704 660.232 60.904C659.712 61.096 659.176 61.192 658.624 61.192ZM666.269 48.844V61H664.133V48.844H666.269ZM666.749 45.028C666.749 45.236 666.705 45.432 666.617 45.616C666.537 45.792 666.425 45.952 666.281 46.096C666.145 46.232 665.985 46.34 665.801 46.42C665.617 46.5 665.421 46.54 665.213 46.54C665.005 46.54 664.809 46.5 664.625 46.42C664.449 46.34 664.289 46.232 664.145 46.096C664.009 45.952 663.901 45.792 663.821 45.616C663.741 45.432 663.701 45.236 663.701 45.028C663.701 44.82 663.741 44.624 663.821 44.44C663.901 44.248 664.009 44.084 664.145 43.948C664.289 43.804 664.449 43.692 664.625 43.612C664.809 43.532 665.005 43.492 665.213 43.492C665.421 43.492 665.617 43.532 665.801 43.612C665.985 43.692 666.145 43.804 666.281 43.948C666.425 44.084 666.537 44.248 666.617 44.44C666.705 44.624 666.749 44.82 666.749 45.028ZM674.953 48.652C675.841 48.652 676.641 48.8 677.353 49.096C678.073 49.392 678.681 49.812 679.177 50.356C679.681 50.9 680.065 51.56 680.329 52.336C680.601 53.104 680.737 53.964 680.737 54.916C680.737 55.876 680.601 56.74 680.329 57.508C680.065 58.276 679.681 58.932 679.177 59.476C678.681 60.02 678.073 60.44 677.353 60.736C676.641 61.024 675.841 61.168 674.953 61.168C674.065 61.168 673.261 61.024 672.541 60.736C671.829 60.44 671.221 60.02 670.717 59.476C670.213 58.932 669.825 58.276 669.553 57.508C669.281 56.74 669.145 55.876 669.145 54.916C669.145 53.964 669.281 53.104 669.553 52.336C669.825 51.56 670.213 50.9 670.717 50.356C671.221 49.812 671.829 49.392 672.541 49.096C673.261 48.8 674.065 48.652 674.953 48.652ZM674.953 59.5C676.153 59.5 677.049 59.1 677.641 58.3C678.233 57.492 678.529 56.368 678.529 54.928C678.529 53.48 678.233 52.352 677.641 51.544C677.049 50.736 676.153 50.332 674.953 50.332C674.345 50.332 673.817 50.436 673.369 50.644C672.921 50.852 672.545 51.152 672.241 51.544C671.945 51.936 671.721 52.42 671.569 52.996C671.425 53.564 671.353 54.208 671.353 54.928C671.353 55.648 671.425 56.292 671.569 56.86C671.721 57.428 671.945 57.908 672.241 58.3C672.545 58.684 672.921 58.98 673.369 59.188C673.817 59.396 674.345 59.5 674.953 59.5ZM683.369 61V48.844H684.641C684.945 48.844 685.137 48.992 685.217 49.288L685.385 50.608C685.913 50.024 686.501 49.552 687.149 49.192C687.805 48.832 688.561 48.652 689.417 48.652C690.081 48.652 690.665 48.764 691.169 48.988C691.681 49.204 692.105 49.516 692.441 49.924C692.785 50.324 693.045 50.808 693.221 51.376C693.397 51.944 693.485 52.572 693.485 53.26V61H691.349V53.26C691.349 52.34 691.137 51.628 690.713 51.124C690.297 50.612 689.657 50.356 688.793 50.356C688.161 50.356 687.569 50.508 687.017 50.812C686.473 51.116 685.969 51.528 685.505 52.048V61H683.369ZM708.306 50.848C708.21 51.024 708.062 51.112 707.862 51.112C707.742 51.112 707.606 51.068 707.454 50.98C707.302 50.892 707.114 50.796 706.89 50.692C706.674 50.58 706.414 50.48 706.11 50.392C705.806 50.296 705.446 50.248 705.03 50.248C704.67 50.248 704.346 50.296 704.058 50.392C703.77 50.48 703.522 50.604 703.314 50.764C703.114 50.924 702.958 51.112 702.846 51.328C702.742 51.536 702.69 51.764 702.69 52.012C702.69 52.324 702.778 52.584 702.954 52.792C703.138 53 703.378 53.18 703.674 53.332C703.97 53.484 704.306 53.62 704.682 53.74C705.058 53.852 705.442 53.976 705.834 54.112C706.234 54.24 706.622 54.384 706.998 54.544C707.374 54.704 707.71 54.904 708.006 55.144C708.302 55.384 708.538 55.68 708.714 56.032C708.898 56.376 708.99 56.792 708.99 57.28C708.99 57.84 708.89 58.36 708.69 58.84C708.49 59.312 708.194 59.724 707.802 60.076C707.41 60.42 706.93 60.692 706.362 60.892C705.794 61.092 705.138 61.192 704.394 61.192C703.546 61.192 702.778 61.056 702.09 60.784C701.402 60.504 700.818 60.148 700.338 59.716L700.842 58.9C700.906 58.796 700.982 58.716 701.07 58.66C701.158 58.604 701.274 58.576 701.418 58.576C701.562 58.576 701.714 58.632 701.874 58.744C702.034 58.856 702.226 58.98 702.45 59.116C702.682 59.252 702.958 59.376 703.278 59.488C703.606 59.6 704.014 59.656 704.502 59.656C704.918 59.656 705.282 59.604 705.594 59.5C705.906 59.388 706.166 59.24 706.374 59.056C706.582 58.872 706.734 58.66 706.83 58.42C706.934 58.18 706.986 57.924 706.986 57.652C706.986 57.316 706.894 57.04 706.71 56.824C706.534 56.6 706.298 56.412 706.002 56.26C705.706 56.1 705.366 55.964 704.982 55.852C704.606 55.732 704.218 55.608 703.818 55.48C703.426 55.352 703.038 55.208 702.654 55.048C702.278 54.88 701.942 54.672 701.646 54.424C701.35 54.176 701.11 53.872 700.926 53.512C700.75 53.144 700.662 52.7 700.662 52.18C700.662 51.716 700.758 51.272 700.95 50.848C701.142 50.416 701.422 50.04 701.79 49.72C702.158 49.392 702.61 49.132 703.146 48.94C703.682 48.748 704.294 48.652 704.982 48.652C705.782 48.652 706.498 48.78 707.13 49.036C707.77 49.284 708.322 49.628 708.786 50.068L708.306 50.848ZM720.044 51.004C719.98 51.092 719.916 51.16 719.852 51.208C719.788 51.256 719.696 51.28 719.576 51.28C719.456 51.28 719.324 51.232 719.18 51.136C719.044 51.032 718.868 50.92 718.652 50.8C718.436 50.68 718.172 50.572 717.86 50.476C717.556 50.372 717.18 50.32 716.732 50.32C716.14 50.32 715.616 50.428 715.16 50.644C714.704 50.852 714.32 51.156 714.008 51.556C713.704 51.956 713.472 52.44 713.312 53.008C713.16 53.576 713.084 54.212 713.084 54.916C713.084 55.652 713.168 56.308 713.336 56.884C713.504 57.452 713.74 57.932 714.044 58.324C714.348 58.708 714.716 59.004 715.148 59.212C715.588 59.412 716.08 59.512 716.624 59.512C717.144 59.512 717.572 59.452 717.908 59.332C718.244 59.204 718.524 59.064 718.748 58.912C718.972 58.76 719.156 58.624 719.3 58.504C719.444 58.376 719.588 58.312 719.732 58.312C719.916 58.312 720.052 58.38 720.14 58.516L720.74 59.296C720.212 59.944 719.552 60.42 718.76 60.724C717.968 61.02 717.132 61.168 716.252 61.168C715.492 61.168 714.784 61.028 714.128 60.748C713.48 60.468 712.916 60.064 712.436 59.536C711.956 59 711.576 58.344 711.296 57.568C711.024 56.792 710.888 55.908 710.888 54.916C710.888 54.012 711.012 53.176 711.26 52.408C711.516 51.64 711.884 50.98 712.364 50.428C712.852 49.868 713.452 49.432 714.164 49.12C714.876 48.808 715.692 48.652 716.612 48.652C717.46 48.652 718.212 48.792 718.868 49.072C719.524 49.344 720.104 49.732 720.608 50.236L720.044 51.004ZM731.883 61H730.935C730.727 61 730.559 60.968 730.431 60.904C730.303 60.84 730.219 60.704 730.179 60.496L729.939 59.368C729.619 59.656 729.307 59.916 729.003 60.148C728.699 60.372 728.379 60.564 728.043 60.724C727.707 60.876 727.347 60.992 726.963 61.072C726.587 61.152 726.167 61.192 725.703 61.192C725.231 61.192 724.787 61.128 724.371 61C723.963 60.864 723.607 60.664 723.303 60.4C722.999 60.136 722.755 59.804 722.571 59.404C722.395 58.996 722.307 58.516 722.307 57.964C722.307 57.484 722.439 57.024 722.703 56.584C722.967 56.136 723.391 55.74 723.975 55.396C724.567 55.052 725.339 54.772 726.291 54.556C727.243 54.332 728.407 54.204 729.783 54.172V53.224C729.783 52.28 729.579 51.568 729.171 51.088C728.771 50.6 728.175 50.356 727.383 50.356C726.863 50.356 726.423 50.424 726.063 50.56C725.711 50.688 725.403 50.836 725.139 51.004C724.883 51.164 724.659 51.312 724.467 51.448C724.283 51.576 724.099 51.64 723.915 51.64C723.771 51.64 723.643 51.604 723.531 51.532C723.427 51.452 723.343 51.356 723.279 51.244L722.895 50.56C723.567 49.912 724.291 49.428 725.067 49.108C725.843 48.788 726.703 48.628 727.647 48.628C728.327 48.628 728.931 48.74 729.459 48.964C729.987 49.188 730.431 49.5 730.791 49.9C731.151 50.3 731.423 50.784 731.607 51.352C731.791 51.92 731.883 52.544 731.883 53.224V61ZM726.339 59.692C726.715 59.692 727.059 59.656 727.371 59.584C727.683 59.504 727.975 59.396 728.247 59.26C728.527 59.116 728.791 58.944 729.039 58.744C729.295 58.544 729.543 58.316 729.783 58.06V55.528C728.799 55.56 727.963 55.64 727.275 55.768C726.587 55.888 726.027 56.048 725.595 56.248C725.163 56.448 724.847 56.684 724.647 56.956C724.455 57.228 724.359 57.532 724.359 57.868C724.359 58.188 724.411 58.464 724.515 58.696C724.619 58.928 724.759 59.12 724.935 59.272C725.111 59.416 725.319 59.524 725.559 59.596C725.799 59.66 726.059 59.692 726.339 59.692ZM737.495 43.324V61H735.359V43.324H737.495ZM746.072 48.652C746.8 48.652 747.472 48.776 748.088 49.024C748.704 49.264 749.236 49.616 749.684 50.08C750.132 50.536 750.48 51.104 750.728 51.784C750.984 52.456 751.112 53.224 751.112 54.088C751.112 54.424 751.076 54.648 751.004 54.76C750.932 54.872 750.796 54.928 750.596 54.928H742.508C742.524 55.696 742.628 56.364 742.82 56.932C743.012 57.5 743.276 57.976 743.612 58.36C743.948 58.736 744.348 59.02 744.812 59.212C745.276 59.396 745.796 59.488 746.372 59.488C746.908 59.488 747.368 59.428 747.752 59.308C748.144 59.18 748.48 59.044 748.76 58.9C749.04 58.756 749.272 58.624 749.456 58.504C749.648 58.376 749.812 58.312 749.948 58.312C750.124 58.312 750.26 58.38 750.356 58.516L750.956 59.296C750.692 59.616 750.376 59.896 750.008 60.136C749.64 60.368 749.244 60.56 748.82 60.712C748.404 60.864 747.972 60.976 747.524 61.048C747.076 61.128 746.632 61.168 746.192 61.168C745.352 61.168 744.576 61.028 743.864 60.748C743.16 60.46 742.548 60.044 742.028 59.5C741.516 58.948 741.116 58.268 740.828 57.46C740.54 56.652 740.396 55.724 740.396 54.676C740.396 53.828 740.524 53.036 740.78 52.3C741.044 51.564 741.42 50.928 741.908 50.392C742.396 49.848 742.992 49.424 743.696 49.12C744.4 48.808 745.192 48.652 746.072 48.652ZM746.12 50.224C745.088 50.224 744.276 50.524 743.684 51.124C743.092 51.716 742.724 52.54 742.58 53.596H749.192C749.192 53.1 749.124 52.648 748.988 52.24C748.852 51.824 748.652 51.468 748.388 51.172C748.124 50.868 747.8 50.636 747.416 50.476C747.04 50.308 746.608 50.224 746.12 50.224ZM760.806 50.848C760.71 51.024 760.562 51.112 760.362 51.112C760.242 51.112 760.106 51.068 759.954 50.98C759.802 50.892 759.614 50.796 759.39 50.692C759.174 50.58 758.914 50.48 758.61 50.392C758.306 50.296 757.946 50.248 757.53 50.248C757.17 50.248 756.846 50.296 756.558 50.392C756.27 50.48 756.022 50.604 755.814 50.764C755.614 50.924 755.458 51.112 755.346 51.328C755.242 51.536 755.19 51.764 755.19 52.012C755.19 52.324 755.278 52.584 755.454 52.792C755.638 53 755.878 53.18 756.174 53.332C756.47 53.484 756.806 53.62 757.182 53.74C757.558 53.852 757.942 53.976 758.334 54.112C758.734 54.24 759.122 54.384 759.498 54.544C759.874 54.704 760.21 54.904 760.506 55.144C760.802 55.384 761.038 55.68 761.214 56.032C761.398 56.376 761.49 56.792 761.49 57.28C761.49 57.84 761.39 58.36 761.19 58.84C760.99 59.312 760.694 59.724 760.302 60.076C759.91 60.42 759.43 60.692 758.862 60.892C758.294 61.092 757.638 61.192 756.894 61.192C756.046 61.192 755.278 61.056 754.59 60.784C753.902 60.504 753.318 60.148 752.838 59.716L753.342 58.9C753.406 58.796 753.482 58.716 753.57 58.66C753.658 58.604 753.774 58.576 753.918 58.576C754.062 58.576 754.214 58.632 754.374 58.744C754.534 58.856 754.726 58.98 754.95 59.116C755.182 59.252 755.458 59.376 755.778 59.488C756.106 59.6 756.514 59.656 757.002 59.656C757.418 59.656 757.782 59.604 758.094 59.5C758.406 59.388 758.666 59.24 758.874 59.056C759.082 58.872 759.234 58.66 759.33 58.42C759.434 58.18 759.486 57.924 759.486 57.652C759.486 57.316 759.394 57.04 759.21 56.824C759.034 56.6 758.798 56.412 758.502 56.26C758.206 56.1 757.866 55.964 757.482 55.852C757.106 55.732 756.718 55.608 756.318 55.48C755.926 55.352 755.538 55.208 755.154 55.048C754.778 54.88 754.442 54.672 754.146 54.424C753.85 54.176 753.61 53.872 753.426 53.512C753.25 53.144 753.162 52.7 753.162 52.18C753.162 51.716 753.258 51.272 753.45 50.848C753.642 50.416 753.922 50.04 754.29 49.72C754.658 49.392 755.11 49.132 755.646 48.94C756.182 48.748 756.794 48.652 757.482 48.652C758.282 48.652 758.998 48.78 759.63 49.036C760.27 49.284 760.822 49.628 761.286 50.068L760.806 50.848ZM763.556 59.68C763.556 59.472 763.592 59.276 763.664 59.092C763.744 58.908 763.848 58.748 763.976 58.612C764.112 58.476 764.272 58.368 764.456 58.288C764.64 58.208 764.836 58.168 765.044 58.168C765.252 58.168 765.448 58.208 765.632 58.288C765.816 58.368 765.976 58.476 766.112 58.612C766.248 58.748 766.352 58.908 766.424 59.092C766.504 59.276 766.544 59.472 766.544 59.68C766.544 59.896 766.504 60.096 766.424 60.28C766.352 60.456 766.248 60.612 766.112 60.748C765.976 60.884 765.816 60.988 765.632 61.06C765.448 61.14 765.252 61.18 765.044 61.18C764.836 61.18 764.64 61.14 764.456 61.06C764.272 60.988 764.112 60.884 763.976 60.748C763.848 60.612 763.744 60.456 763.664 60.28C763.592 60.096 763.556 59.896 763.556 59.68ZM786.027 43.804V45.76H780.471V61H778.143V45.76H772.563V43.804H786.027ZM788.135 61V43.324H790.271V50.476C790.791 49.924 791.367 49.484 791.999 49.156C792.631 48.82 793.359 48.652 794.183 48.652C794.847 48.652 795.431 48.764 795.935 48.988C796.447 49.204 796.871 49.516 797.207 49.924C797.551 50.324 797.811 50.808 797.987 51.376C798.163 51.944 798.251 52.572 798.251 53.26V61H796.115V53.26C796.115 52.34 795.903 51.628 795.479 51.124C795.063 50.612 794.423 50.356 793.559 50.356C792.927 50.356 792.335 50.508 791.783 50.812C791.239 51.116 790.735 51.528 790.271 52.048V61H788.135ZM803.847 48.844V61H801.711V48.844H803.847ZM804.327 45.028C804.327 45.236 804.283 45.432 804.195 45.616C804.115 45.792 804.003 45.952 803.859 46.096C803.723 46.232 803.563 46.34 803.379 46.42C803.195 46.5 802.999 46.54 802.791 46.54C802.583 46.54 802.387 46.5 802.203 46.42C802.027 46.34 801.867 46.232 801.723 46.096C801.587 45.952 801.479 45.792 801.399 45.616C801.319 45.432 801.279 45.236 801.279 45.028C801.279 44.82 801.319 44.624 801.399 44.44C801.479 44.248 801.587 44.084 801.723 43.948C801.867 43.804 802.027 43.692 802.203 43.612C802.387 43.532 802.583 43.492 802.791 43.492C802.999 43.492 803.195 43.532 803.379 43.612C803.563 43.692 803.723 43.804 803.859 43.948C804.003 44.084 804.115 44.248 804.195 44.44C804.283 44.624 804.327 44.82 804.327 45.028ZM814.571 50.848C814.475 51.024 814.327 51.112 814.127 51.112C814.007 51.112 813.871 51.068 813.719 50.98C813.567 50.892 813.379 50.796 813.155 50.692C812.939 50.58 812.679 50.48 812.375 50.392C812.071 50.296 811.711 50.248 811.295 50.248C810.935 50.248 810.611 50.296 810.323 50.392C810.035 50.48 809.787 50.604 809.579 50.764C809.379 50.924 809.223 51.112 809.111 51.328C809.007 51.536 808.955 51.764 808.955 52.012C808.955 52.324 809.043 52.584 809.219 52.792C809.403 53 809.643 53.18 809.939 53.332C810.235 53.484 810.571 53.62 810.947 53.74C811.323 53.852 811.707 53.976 812.099 54.112C812.499 54.24 812.887 54.384 813.263 54.544C813.639 54.704 813.975 54.904 814.271 55.144C814.567 55.384 814.803 55.68 814.979 56.032C815.163 56.376 815.255 56.792 815.255 57.28C815.255 57.84 815.155 58.36 814.955 58.84C814.755 59.312 814.459 59.724 814.067 60.076C813.675 60.42 813.195 60.692 812.627 60.892C812.059 61.092 811.403 61.192 810.659 61.192C809.811 61.192 809.043 61.056 808.355 60.784C807.667 60.504 807.083 60.148 806.603 59.716L807.107 58.9C807.171 58.796 807.247 58.716 807.335 58.66C807.423 58.604 807.539 58.576 807.683 58.576C807.827 58.576 807.979 58.632 808.139 58.744C808.299 58.856 808.491 58.98 808.715 59.116C808.947 59.252 809.223 59.376 809.543 59.488C809.871 59.6 810.279 59.656 810.767 59.656C811.183 59.656 811.547 59.604 811.859 59.5C812.171 59.388 812.431 59.24 812.639 59.056C812.847 58.872 812.999 58.66 813.095 58.42C813.199 58.18 813.251 57.924 813.251 57.652C813.251 57.316 813.159 57.04 812.975 56.824C812.799 56.6 812.563 56.412 812.267 56.26C811.971 56.1 811.631 55.964 811.247 55.852C810.871 55.732 810.483 55.608 810.083 55.48C809.691 55.352 809.303 55.208 808.919 55.048C808.543 54.88 808.207 54.672 807.911 54.424C807.615 54.176 807.375 53.872 807.191 53.512C807.015 53.144 806.927 52.7 806.927 52.18C806.927 51.716 807.023 51.272 807.215 50.848C807.407 50.416 807.687 50.04 808.055 49.72C808.423 49.392 808.875 49.132 809.411 48.94C809.947 48.748 810.559 48.652 811.247 48.652C812.047 48.652 812.763 48.78 813.395 49.036C814.035 49.284 814.587 49.628 815.051 50.068L814.571 50.848ZM825.034 48.844V61H822.898V48.844H825.034ZM825.514 45.028C825.514 45.236 825.47 45.432 825.382 45.616C825.302 45.792 825.19 45.952 825.046 46.096C824.91 46.232 824.75 46.34 824.566 46.42C824.382 46.5 824.186 46.54 823.978 46.54C823.77 46.54 823.574 46.5 823.39 46.42C823.214 46.34 823.054 46.232 822.91 46.096C822.774 45.952 822.666 45.792 822.586 45.616C822.506 45.432 822.466 45.236 822.466 45.028C822.466 44.82 822.506 44.624 822.586 44.44C822.666 44.248 822.774 44.084 822.91 43.948C823.054 43.804 823.214 43.692 823.39 43.612C823.574 43.532 823.77 43.492 823.978 43.492C824.186 43.492 824.382 43.532 824.566 43.612C824.75 43.692 824.91 43.804 825.046 43.948C825.19 44.084 825.302 44.248 825.382 44.44C825.47 44.624 825.514 44.82 825.514 45.028ZM835.759 50.848C835.663 51.024 835.515 51.112 835.315 51.112C835.195 51.112 835.059 51.068 834.907 50.98C834.755 50.892 834.567 50.796 834.343 50.692C834.127 50.58 833.867 50.48 833.563 50.392C833.259 50.296 832.899 50.248 832.483 50.248C832.123 50.248 831.799 50.296 831.511 50.392C831.223 50.48 830.975 50.604 830.767 50.764C830.567 50.924 830.411 51.112 830.299 51.328C830.195 51.536 830.143 51.764 830.143 52.012C830.143 52.324 830.231 52.584 830.407 52.792C830.591 53 830.831 53.18 831.127 53.332C831.423 53.484 831.759 53.62 832.135 53.74C832.511 53.852 832.895 53.976 833.287 54.112C833.687 54.24 834.075 54.384 834.451 54.544C834.827 54.704 835.163 54.904 835.459 55.144C835.755 55.384 835.991 55.68 836.167 56.032C836.351 56.376 836.443 56.792 836.443 57.28C836.443 57.84 836.343 58.36 836.143 58.84C835.943 59.312 835.647 59.724 835.255 60.076C834.863 60.42 834.383 60.692 833.815 60.892C833.247 61.092 832.591 61.192 831.847 61.192C830.999 61.192 830.231 61.056 829.543 60.784C828.855 60.504 828.271 60.148 827.791 59.716L828.295 58.9C828.359 58.796 828.435 58.716 828.523 58.66C828.611 58.604 828.727 58.576 828.871 58.576C829.015 58.576 829.167 58.632 829.327 58.744C829.487 58.856 829.679 58.98 829.903 59.116C830.135 59.252 830.411 59.376 830.731 59.488C831.059 59.6 831.467 59.656 831.955 59.656C832.371 59.656 832.735 59.604 833.047 59.5C833.359 59.388 833.619 59.24 833.827 59.056C834.035 58.872 834.187 58.66 834.283 58.42C834.387 58.18 834.439 57.924 834.439 57.652C834.439 57.316 834.347 57.04 834.163 56.824C833.987 56.6 833.751 56.412 833.455 56.26C833.159 56.1 832.819 55.964 832.435 55.852C832.059 55.732 831.671 55.608 831.271 55.48C830.879 55.352 830.491 55.208 830.107 55.048C829.731 54.88 829.395 54.672 829.099 54.424C828.803 54.176 828.563 53.872 828.379 53.512C828.203 53.144 828.115 52.7 828.115 52.18C828.115 51.716 828.211 51.272 828.403 50.848C828.595 50.416 828.875 50.04 829.243 49.72C829.611 49.392 830.063 49.132 830.599 48.94C831.135 48.748 831.747 48.652 832.435 48.652C833.235 48.652 833.951 48.78 834.583 49.036C835.223 49.284 835.775 49.628 836.239 50.068L835.759 50.848ZM852.774 61H851.826C851.618 61 851.45 60.968 851.322 60.904C851.194 60.84 851.11 60.704 851.07 60.496L850.83 59.368C850.51 59.656 850.198 59.916 849.894 60.148C849.59 60.372 849.27 60.564 848.934 60.724C848.598 60.876 848.238 60.992 847.854 61.072C847.478 61.152 847.058 61.192 846.594 61.192C846.122 61.192 845.678 61.128 845.262 61C844.854 60.864 844.498 60.664 844.194 60.4C843.89 60.136 843.646 59.804 843.462 59.404C843.286 58.996 843.198 58.516 843.198 57.964C843.198 57.484 843.33 57.024 843.594 56.584C843.858 56.136 844.282 55.74 844.866 55.396C845.458 55.052 846.23 54.772 847.182 54.556C848.134 54.332 849.298 54.204 850.674 54.172V53.224C850.674 52.28 850.47 51.568 850.062 51.088C849.662 50.6 849.066 50.356 848.274 50.356C847.754 50.356 847.314 50.424 846.954 50.56C846.602 50.688 846.294 50.836 846.03 51.004C845.774 51.164 845.55 51.312 845.358 51.448C845.174 51.576 844.99 51.64 844.806 51.64C844.662 51.64 844.534 51.604 844.422 51.532C844.318 51.452 844.234 51.356 844.17 51.244L843.786 50.56C844.458 49.912 845.182 49.428 845.958 49.108C846.734 48.788 847.594 48.628 848.538 48.628C849.218 48.628 849.822 48.74 850.35 48.964C850.878 49.188 851.322 49.5 851.682 49.9C852.042 50.3 852.314 50.784 852.498 51.352C852.682 51.92 852.774 52.544 852.774 53.224V61ZM847.23 59.692C847.606 59.692 847.95 59.656 848.262 59.584C848.574 59.504 848.866 59.396 849.138 59.26C849.418 59.116 849.682 58.944 849.93 58.744C850.186 58.544 850.434 58.316 850.674 58.06V55.528C849.69 55.56 848.854 55.64 848.166 55.768C847.478 55.888 846.918 56.048 846.486 56.248C846.054 56.448 845.738 56.684 845.538 56.956C845.346 57.228 845.25 57.532 845.25 57.868C845.25 58.188 845.302 58.464 845.406 58.696C845.51 58.928 845.65 59.12 845.826 59.272C846.002 59.416 846.21 59.524 846.45 59.596C846.69 59.66 846.95 59.692 847.23 59.692ZM856.01 61V48.844H857.282C857.586 48.844 857.778 48.992 857.858 49.288L858.026 50.608C858.554 50.024 859.142 49.552 859.79 49.192C860.446 48.832 861.202 48.652 862.058 48.652C862.722 48.652 863.306 48.764 863.81 48.988C864.322 49.204 864.746 49.516 865.082 49.924C865.426 50.324 865.686 50.808 865.862 51.376C866.038 51.944 866.126 52.572 866.126 53.26V61H863.99V53.26C863.99 52.34 863.778 51.628 863.354 51.124C862.938 50.612 862.298 50.356 861.434 50.356C860.802 50.356 860.21 50.508 859.658 50.812C859.114 51.116 858.61 51.528 858.146 52.048V61H856.01ZM882.914 61H881.966C881.758 61 881.59 60.968 881.462 60.904C881.334 60.84 881.25 60.704 881.21 60.496L880.97 59.368C880.65 59.656 880.338 59.916 880.034 60.148C879.73 60.372 879.41 60.564 879.074 60.724C878.738 60.876 878.378 60.992 877.994 61.072C877.618 61.152 877.198 61.192 876.734 61.192C876.262 61.192 875.818 61.128 875.402 61C874.994 60.864 874.638 60.664 874.334 60.4C874.03 60.136 873.786 59.804 873.602 59.404C873.426 58.996 873.338 58.516 873.338 57.964C873.338 57.484 873.47 57.024 873.734 56.584C873.998 56.136 874.422 55.74 875.006 55.396C875.598 55.052 876.37 54.772 877.322 54.556C878.274 54.332 879.438 54.204 880.814 54.172V53.224C880.814 52.28 880.61 51.568 880.202 51.088C879.802 50.6 879.206 50.356 878.414 50.356C877.894 50.356 877.454 50.424 877.094 50.56C876.742 50.688 876.434 50.836 876.17 51.004C875.914 51.164 875.69 51.312 875.498 51.448C875.314 51.576 875.13 51.64 874.946 51.64C874.802 51.64 874.674 51.604 874.562 51.532C874.458 51.452 874.374 51.356 874.31 51.244L873.926 50.56C874.598 49.912 875.322 49.428 876.098 49.108C876.874 48.788 877.734 48.628 878.678 48.628C879.358 48.628 879.962 48.74 880.49 48.964C881.018 49.188 881.462 49.5 881.822 49.9C882.182 50.3 882.454 50.784 882.638 51.352C882.822 51.92 882.914 52.544 882.914 53.224V61ZM877.37 59.692C877.746 59.692 878.09 59.656 878.402 59.584C878.714 59.504 879.006 59.396 879.278 59.26C879.558 59.116 879.822 58.944 880.07 58.744C880.326 58.544 880.574 58.316 880.814 58.06V55.528C879.83 55.56 878.994 55.64 878.306 55.768C877.618 55.888 877.058 56.048 876.626 56.248C876.194 56.448 875.878 56.684 875.678 56.956C875.486 57.228 875.39 57.532 875.39 57.868C875.39 58.188 875.442 58.464 875.546 58.696C875.65 58.928 875.79 59.12 875.966 59.272C876.142 59.416 876.35 59.524 876.59 59.596C876.83 59.66 877.09 59.692 877.37 59.692ZM889.834 61.192C888.874 61.192 888.134 60.924 887.614 60.388C887.102 59.852 886.846 59.08 886.846 58.072V50.632H885.382C885.254 50.632 885.146 50.596 885.058 50.524C884.97 50.444 884.926 50.324 884.926 50.164V49.312L886.918 49.06L887.41 45.304C887.426 45.184 887.478 45.088 887.566 45.016C887.654 44.936 887.766 44.896 887.902 44.896H888.982V49.084H892.462V50.632H888.982V57.928C888.982 58.44 889.106 58.82 889.354 59.068C889.602 59.316 889.922 59.44 890.314 59.44C890.538 59.44 890.73 59.412 890.89 59.356C891.058 59.292 891.202 59.224 891.322 59.152C891.442 59.08 891.542 59.016 891.622 58.96C891.71 58.896 891.786 58.864 891.85 58.864C891.962 58.864 892.062 58.932 892.15 59.068L892.774 60.088C892.406 60.432 891.962 60.704 891.442 60.904C890.922 61.096 890.386 61.192 889.834 61.192ZM898.788 61.192C897.828 61.192 897.088 60.924 896.568 60.388C896.056 59.852 895.8 59.08 895.8 58.072V50.632H894.336C894.208 50.632 894.1 50.596 894.012 50.524C893.924 50.444 893.88 50.324 893.88 50.164V49.312L895.872 49.06L896.364 45.304C896.38 45.184 896.432 45.088 896.52 45.016C896.608 44.936 896.72 44.896 896.856 44.896H897.936V49.084H901.416V50.632H897.936V57.928C897.936 58.44 898.06 58.82 898.308 59.068C898.556 59.316 898.876 59.44 899.268 59.44C899.492 59.44 899.684 59.412 899.844 59.356C900.012 59.292 900.156 59.224 900.276 59.152C900.396 59.08 900.496 59.016 900.576 58.96C900.664 58.896 900.74 58.864 900.804 58.864C900.916 58.864 901.016 58.932 901.104 59.068L901.728 60.088C901.36 60.432 900.916 60.704 900.396 60.904C899.876 61.096 899.34 61.192 898.788 61.192ZM908.869 48.652C909.597 48.652 910.269 48.776 910.885 49.024C911.501 49.264 912.033 49.616 912.481 50.08C912.929 50.536 913.277 51.104 913.525 51.784C913.781 52.456 913.909 53.224 913.909 54.088C913.909 54.424 913.873 54.648 913.801 54.76C913.729 54.872 913.593 54.928 913.393 54.928H905.305C905.321 55.696 905.425 56.364 905.617 56.932C905.809 57.5 906.073 57.976 906.409 58.36C906.745 58.736 907.145 59.02 907.609 59.212C908.073 59.396 908.593 59.488 909.169 59.488C909.705 59.488 910.165 59.428 910.549 59.308C910.941 59.18 911.277 59.044 911.557 58.9C911.837 58.756 912.069 58.624 912.253 58.504C912.445 58.376 912.609 58.312 912.745 58.312C912.921 58.312 913.057 58.38 913.153 58.516L913.753 59.296C913.489 59.616 913.173 59.896 912.805 60.136C912.437 60.368 912.041 60.56 911.617 60.712C911.201 60.864 910.769 60.976 910.321 61.048C909.873 61.128 909.429 61.168 908.989 61.168C908.149 61.168 907.373 61.028 906.661 60.748C905.957 60.46 905.345 60.044 904.825 59.5C904.313 58.948 903.913 58.268 903.625 57.46C903.337 56.652 903.193 55.724 903.193 54.676C903.193 53.828 903.321 53.036 903.577 52.3C903.841 51.564 904.217 50.928 904.705 50.392C905.193 49.848 905.789 49.424 906.493 49.12C907.197 48.808 907.989 48.652 908.869 48.652ZM908.917 50.224C907.885 50.224 907.073 50.524 906.481 51.124C905.889 51.716 905.521 52.54 905.377 53.596H911.989C911.989 53.1 911.921 52.648 911.785 52.24C911.649 51.824 911.449 51.468 911.185 51.172C910.921 50.868 910.597 50.636 910.213 50.476C909.837 50.308 909.405 50.224 908.917 50.224ZM916.643 61V48.844H917.915C918.219 48.844 918.411 48.992 918.491 49.288L918.659 50.608C919.187 50.024 919.775 49.552 920.423 49.192C921.079 48.832 921.835 48.652 922.691 48.652C923.355 48.652 923.939 48.764 924.443 48.988C924.955 49.204 925.379 49.516 925.715 49.924C926.059 50.324 926.319 50.808 926.495 51.376C926.671 51.944 926.759 52.572 926.759 53.26V61H924.623V53.26C924.623 52.34 924.411 51.628 923.987 51.124C923.571 50.612 922.931 50.356 922.067 50.356C921.435 50.356 920.843 50.508 920.291 50.812C919.747 51.116 919.243 51.528 918.779 52.048V61H916.643ZM933.663 61.192C932.703 61.192 931.963 60.924 931.443 60.388C930.931 59.852 930.675 59.08 930.675 58.072V50.632H929.211C929.083 50.632 928.975 50.596 928.887 50.524C928.799 50.444 928.755 50.324 928.755 50.164V49.312L930.747 49.06L931.239 45.304C931.255 45.184 931.307 45.088 931.395 45.016C931.483 44.936 931.595 44.896 931.731 44.896H932.811V49.084H936.291V50.632H932.811V57.928C932.811 58.44 932.935 58.82 933.183 59.068C933.431 59.316 933.751 59.44 934.143 59.44C934.367 59.44 934.559 59.412 934.719 59.356C934.887 59.292 935.031 59.224 935.151 59.152C935.271 59.08 935.371 59.016 935.451 58.96C935.539 58.896 935.615 58.864 935.679 58.864C935.791 58.864 935.891 58.932 935.979 59.068L936.603 60.088C936.235 60.432 935.791 60.704 935.271 60.904C934.751 61.096 934.215 61.192 933.663 61.192ZM941.308 48.844V61H939.172V48.844H941.308ZM941.788 45.028C941.788 45.236 941.744 45.432 941.656 45.616C941.576 45.792 941.464 45.952 941.32 46.096C941.184 46.232 941.024 46.34 940.84 46.42C940.656 46.5 940.46 46.54 940.252 46.54C940.044 46.54 939.848 46.5 939.664 46.42C939.488 46.34 939.328 46.232 939.184 46.096C939.048 45.952 938.94 45.792 938.86 45.616C938.78 45.432 938.74 45.236 938.74 45.028C938.74 44.82 938.78 44.624 938.86 44.44C938.94 44.248 939.048 44.084 939.184 43.948C939.328 43.804 939.488 43.692 939.664 43.612C939.848 43.532 940.044 43.492 940.252 43.492C940.46 43.492 940.656 43.532 940.84 43.612C941.024 43.692 941.184 43.804 941.32 43.948C941.464 44.084 941.576 44.248 941.656 44.44C941.744 44.624 941.788 44.82 941.788 45.028ZM949.992 48.652C950.88 48.652 951.68 48.8 952.392 49.096C953.112 49.392 953.72 49.812 954.216 50.356C954.72 50.9 955.104 51.56 955.368 52.336C955.64 53.104 955.776 53.964 955.776 54.916C955.776 55.876 955.64 56.74 955.368 57.508C955.104 58.276 954.72 58.932 954.216 59.476C953.72 60.02 953.112 60.44 952.392 60.736C951.68 61.024 950.88 61.168 949.992 61.168C949.104 61.168 948.3 61.024 947.58 60.736C946.868 60.44 946.26 60.02 945.756 59.476C945.252 58.932 944.864 58.276 944.592 57.508C944.32 56.74 944.184 55.876 944.184 54.916C944.184 53.964 944.32 53.104 944.592 52.336C944.864 51.56 945.252 50.9 945.756 50.356C946.26 49.812 946.868 49.392 947.58 49.096C948.3 48.8 949.104 48.652 949.992 48.652ZM949.992 59.5C951.192 59.5 952.088 59.1 952.68 58.3C953.272 57.492 953.568 56.368 953.568 54.928C953.568 53.48 953.272 52.352 952.68 51.544C952.088 50.736 951.192 50.332 949.992 50.332C949.384 50.332 948.856 50.436 948.408 50.644C947.96 50.852 947.584 51.152 947.28 51.544C946.984 51.936 946.76 52.42 946.608 52.996C946.464 53.564 946.392 54.208 946.392 54.928C946.392 55.648 946.464 56.292 946.608 56.86C946.76 57.428 946.984 57.908 947.28 58.3C947.584 58.684 947.96 58.98 948.408 59.188C948.856 59.396 949.384 59.5 949.992 59.5ZM958.408 61V48.844H959.68C959.984 48.844 960.176 48.992 960.256 49.288L960.424 50.608C960.952 50.024 961.54 49.552 962.188 49.192C962.844 48.832 963.6 48.652 964.456 48.652C965.12 48.652 965.704 48.764 966.208 48.988C966.72 49.204 967.144 49.516 967.48 49.924C967.824 50.324 968.084 50.808 968.26 51.376C968.436 51.944 968.524 52.572 968.524 53.26V61H966.388V53.26C966.388 52.34 966.176 51.628 965.752 51.124C965.336 50.612 964.696 50.356 963.832 50.356C963.2 50.356 962.608 50.508 962.056 50.812C961.512 51.116 961.008 51.528 960.544 52.048V61H958.408ZM984.677 51.004C984.613 51.092 984.549 51.16 984.485 51.208C984.421 51.256 984.329 51.28 984.209 51.28C984.089 51.28 983.957 51.232 983.813 51.136C983.677 51.032 983.501 50.92 983.285 50.8C983.069 50.68 982.805 50.572 982.493 50.476C982.189 50.372 981.813 50.32 981.365 50.32C980.773 50.32 980.249 50.428 979.793 50.644C979.337 50.852 978.953 51.156 978.641 51.556C978.337 51.956 978.105 52.44 977.945 53.008C977.793 53.576 977.717 54.212 977.717 54.916C977.717 55.652 977.801 56.308 977.969 56.884C978.137 57.452 978.373 57.932 978.677 58.324C978.981 58.708 979.349 59.004 979.781 59.212C980.221 59.412 980.713 59.512 981.257 59.512C981.777 59.512 982.205 59.452 982.541 59.332C982.877 59.204 983.157 59.064 983.381 58.912C983.605 58.76 983.789 58.624 983.933 58.504C984.077 58.376 984.221 58.312 984.365 58.312C984.549 58.312 984.685 58.38 984.773 58.516L985.373 59.296C984.845 59.944 984.185 60.42 983.393 60.724C982.601 61.02 981.765 61.168 980.885 61.168C980.125 61.168 979.417 61.028 978.761 60.748C978.113 60.468 977.549 60.064 977.069 59.536C976.589 59 976.209 58.344 975.929 57.568C975.657 56.792 975.521 55.908 975.521 54.916C975.521 54.012 975.645 53.176 975.893 52.408C976.149 51.64 976.517 50.98 976.997 50.428C977.485 49.868 978.085 49.432 978.797 49.12C979.509 48.808 980.325 48.652 981.245 48.652C982.093 48.652 982.845 48.792 983.501 49.072C984.157 49.344 984.737 49.732 985.241 50.236L984.677 51.004ZM987.588 61V43.324H989.724V50.476C990.244 49.924 990.82 49.484 991.452 49.156C992.084 48.82 992.812 48.652 993.636 48.652C994.3 48.652 994.884 48.764 995.388 48.988C995.9 49.204 996.324 49.516 996.66 49.924C997.004 50.324 997.264 50.808 997.44 51.376C997.616 51.944 997.704 52.572 997.704 53.26V61H995.568V53.26C995.568 52.34 995.356 51.628 994.932 51.124C994.516 50.612 993.876 50.356 993.012 50.356C992.38 50.356 991.788 50.508 991.236 50.812C990.692 51.116 990.188 51.528 989.724 52.048V61H987.588ZM1005.74 48.652C1006.46 48.652 1007.14 48.776 1007.75 49.024C1008.37 49.264 1008.9 49.616 1009.35 50.08C1009.8 50.536 1010.14 51.104 1010.39 51.784C1010.65 52.456 1010.78 53.224 1010.78 54.088C1010.78 54.424 1010.74 54.648 1010.67 54.76C1010.6 54.872 1010.46 54.928 1010.26 54.928H1002.17C1002.19 55.696 1002.29 56.364 1002.48 56.932C1002.68 57.5 1002.94 57.976 1003.28 58.36C1003.61 58.736 1004.01 59.02 1004.48 59.212C1004.94 59.396 1005.46 59.488 1006.04 59.488C1006.57 59.488 1007.03 59.428 1007.42 59.308C1007.81 59.18 1008.14 59.044 1008.42 58.9C1008.7 58.756 1008.94 58.624 1009.12 58.504C1009.31 58.376 1009.48 58.312 1009.61 58.312C1009.79 58.312 1009.92 58.38 1010.02 58.516L1010.62 59.296C1010.36 59.616 1010.04 59.896 1009.67 60.136C1009.3 60.368 1008.91 60.56 1008.48 60.712C1008.07 60.864 1007.64 60.976 1007.19 61.048C1006.74 61.128 1006.3 61.168 1005.86 61.168C1005.02 61.168 1004.24 61.028 1003.53 60.748C1002.82 60.46 1002.21 60.044 1001.69 59.5C1001.18 58.948 1000.78 58.268 1000.49 57.46C1000.2 56.652 1000.06 55.724 1000.06 54.676C1000.06 53.828 1000.19 53.036 1000.44 52.3C1000.71 51.564 1001.08 50.928 1001.57 50.392C1002.06 49.848 1002.66 49.424 1003.36 49.12C1004.06 48.808 1004.86 48.652 1005.74 48.652ZM1005.78 50.224C1004.75 50.224 1003.94 50.524 1003.35 51.124C1002.76 51.716 1002.39 52.54 1002.24 53.596H1008.86C1008.86 53.1 1008.79 52.648 1008.65 52.24C1008.52 51.824 1008.32 51.468 1008.05 51.172C1007.79 50.868 1007.46 50.636 1007.08 50.476C1006.7 50.308 1006.27 50.224 1005.78 50.224ZM1021.8 51.004C1021.74 51.092 1021.67 51.16 1021.61 51.208C1021.55 51.256 1021.45 51.28 1021.33 51.28C1021.21 51.28 1021.08 51.232 1020.94 51.136C1020.8 51.032 1020.63 50.92 1020.41 50.8C1020.19 50.68 1019.93 50.572 1019.62 50.476C1019.31 50.372 1018.94 50.32 1018.49 50.32C1017.9 50.32 1017.37 50.428 1016.92 50.644C1016.46 50.852 1016.08 51.156 1015.77 51.556C1015.46 51.956 1015.23 52.44 1015.07 53.008C1014.92 53.576 1014.84 54.212 1014.84 54.916C1014.84 55.652 1014.93 56.308 1015.09 56.884C1015.26 57.452 1015.5 57.932 1015.8 58.324C1016.11 58.708 1016.47 59.004 1016.91 59.212C1017.35 59.412 1017.84 59.512 1018.38 59.512C1018.9 59.512 1019.33 59.452 1019.67 59.332C1020 59.204 1020.28 59.064 1020.51 58.912C1020.73 58.76 1020.91 58.624 1021.06 58.504C1021.2 58.376 1021.35 58.312 1021.49 58.312C1021.67 58.312 1021.81 58.38 1021.9 58.516L1022.5 59.296C1021.97 59.944 1021.31 60.42 1020.52 60.724C1019.73 61.02 1018.89 61.168 1018.01 61.168C1017.25 61.168 1016.54 61.028 1015.89 60.748C1015.24 60.468 1014.67 60.064 1014.19 59.536C1013.71 59 1013.33 58.344 1013.05 57.568C1012.78 56.792 1012.65 55.908 1012.65 54.916C1012.65 54.012 1012.77 53.176 1013.02 52.408C1013.27 51.64 1013.64 50.98 1014.12 50.428C1014.61 49.868 1015.21 49.432 1015.92 49.12C1016.63 48.808 1017.45 48.652 1018.37 48.652C1019.22 48.652 1019.97 48.792 1020.63 49.072C1021.28 49.344 1021.86 49.732 1022.37 50.236L1021.8 51.004ZM1026.93 43.324V53.728H1027.48C1027.64 53.728 1027.78 53.708 1027.88 53.668C1027.98 53.62 1028.1 53.528 1028.23 53.392L1032.07 49.276C1032.19 49.148 1032.31 49.044 1032.43 48.964C1032.55 48.884 1032.71 48.844 1032.91 48.844H1034.85L1030.38 53.608C1030.26 53.744 1030.15 53.864 1030.04 53.968C1029.94 54.072 1029.82 54.164 1029.68 54.244C1029.82 54.34 1029.95 54.452 1030.06 54.58C1030.18 54.7 1030.3 54.84 1030.4 55L1035.15 61H1033.23C1033.06 61 1032.9 60.968 1032.78 60.904C1032.66 60.832 1032.54 60.724 1032.43 60.58L1028.43 55.6C1028.31 55.432 1028.19 55.324 1028.07 55.276C1027.95 55.22 1027.77 55.192 1027.53 55.192H1026.93V61H1024.78V43.324H1026.93ZM1036.6 59.68C1036.6 59.472 1036.64 59.276 1036.71 59.092C1036.79 58.908 1036.89 58.748 1037.02 58.612C1037.16 58.476 1037.32 58.368 1037.5 58.288C1037.69 58.208 1037.88 58.168 1038.09 58.168C1038.3 58.168 1038.49 58.208 1038.68 58.288C1038.86 58.368 1039.02 58.476 1039.16 58.612C1039.29 58.748 1039.4 58.908 1039.47 59.092C1039.55 59.276 1039.59 59.472 1039.59 59.68C1039.59 59.896 1039.55 60.096 1039.47 60.28C1039.4 60.456 1039.29 60.612 1039.16 60.748C1039.02 60.884 1038.86 60.988 1038.68 61.06C1038.49 61.14 1038.3 61.18 1038.09 61.18C1037.88 61.18 1037.69 61.14 1037.5 61.06C1037.32 60.988 1037.16 60.884 1037.02 60.748C1036.89 60.612 1036.79 60.456 1036.71 60.28C1036.64 60.096 1036.6 59.896 1036.6 59.68Z" fill="black"/>
</svg>
